<svg width="200" height="200" version="1.1" xmlns="http://www.w3.org/2000/svg" desc="Created with imagetracer.js version 1.2.6" ><path fill="rgb(0,0,0)" stroke="rgb(0,0,0)" stroke-width="1" opacity="1" d="M 0 0 L 199.5 0 L 200 0.5 L 200 15 L 140 31 L 138.5 5 L 128.5 12 L 124 13 Q 127.1 29.6 138.5 39 L 141 40.5 L 139.5 40 Q 133.4 38.6 131 33.5 L 125 22.5 L 121 9.5 L 121 5.5 L 119.5 4 L 101 18.5 L 85.5 39 L 84.5 37 L 82.5 38 L 80 37 L 72.5 49 L 0 96 L 0 0 Z M 120 1 L 121 2 L 123 13 L 124 13 Q 125 6 122 4 Q 123 0 120 1 Z M 114 4 L 113 6 L 115 5 L 114 4 Z M 109 8 L 107 10 L 109 10 L 109 8 Z M 104 12 L 100 17 L 105 13 L 104 12 Z M 96 21 L 94 24 L 96 23 L 96 21 Z M 93 25 L 91 28 L 93 27 L 93 25 Z M 87 34 L 85 37 L 87 36 L 87 34 Z " /><path fill="rgb(0,0,0)" stroke="rgb(0,0,0)" stroke-width="1" opacity="1" d="M 196.5 34 L 189 42.5 L 189 44.5 L 184.5 49 L 186 46.5 Q 189.3 38.3 196.5 34 Z " /><path fill="rgb(0,0,0)" stroke="rgb(0,0,0)" stroke-width="1" opacity="1" d="M 196.5 39 L 196 40.5 L 198 53.5 L 197 53.5 L 195 40.5 L 196.5 39 Z " /><path fill="rgb(0,0,0)" stroke="rgb(0,0,0)" stroke-width="1" opacity="1" d="M 189.5 48 L 196 55.5 L 192 53.5 L 194 59.5 L 193 59.5 L 189 50.5 L 189.5 48 Z " /><path fill="rgb(0,0,0)" stroke="rgb(0,0,0)" stroke-width="1" opacity="1" d="M 158.5 50 L 173 57.5 L 171.5 58 L 159.5 52 L 158.5 50 Z " /><path fill="rgb(0,0,0)" stroke="rgb(0,0,0)" stroke-width="1" opacity="1" d="M 183.5 50 L 184 51.5 L 180 54 Q 181.1 56.7 178.5 56 L 183.5 50 Z " /><path fill="rgb(0,0,0)" stroke="rgb(0,0,0)" stroke-width="1" opacity="1" d="M 184.5 54 L 185.5 56 L 184.5 54 Z " /><path fill="rgb(0,0,0)" stroke="rgb(0,0,0)" stroke-width="1" opacity="1" d="M 71.5 57 L 70.5 59 L 68.5 60 L 69.5 58 L 71.5 57 Z " /><path fill="rgb(0,0,0)" stroke="rgb(0,0,0)" stroke-width="1" opacity="1" d="M 176.5 57 L 178 57.5 L 177.5 59 L 185 60.5 L 177.5 61 L 174 58.5 L 176.5 57 Z " /><path fill="rgb(0,0,0)" stroke="rgb(0,0,0)" stroke-width="1" opacity="1" d="M 187.5 59 L 192 64.5 L 188 61.5 L 187.5 59 Z " /><path fill="rgb(0,0,0)" stroke="rgb(0,0,0)" stroke-width="1" opacity="1" d="M 64.5 61 L 63.5 63 L 61.5 64 L 62.5 62 L 64.5 61 Z " /><path fill="rgb(0,0,0)" stroke="rgb(0,0,0)" stroke-width="1" opacity="1" d="M 59.5 64 L 57.5 67 Q 47.3 72.3 41 81.5 L 38.5 85 L 40 82.5 L 52.5 69 L 59.5 64 Z " /><path fill="rgb(0,0,0)" stroke="rgb(0,0,0)" stroke-width="1" opacity="1" d="M 190.5 67 L 196 71.5 L 198 76.5 L 196 77.5 L 197 74.5 L 192.5 69 L 190.5 67 Z " /><path fill="rgb(0,0,0)" stroke="rgb(0,0,0)" stroke-width="1" opacity="1" d="M 63.5 70 L 62.5 72 L 57.5 76 L 61.5 71 L 63.5 70 Z " /><path fill="rgb(0,0,0)" stroke="rgb(0,0,0)" stroke-width="1" opacity="1" d="M 181.5 70 L 183 72.5 L 182 72.5 L 181.5 70 Z " /><path fill="rgb(0,0,0)" stroke="rgb(0,0,0)" stroke-width="1" opacity="1" d="M 189.5 72 L 195 79.5 L 190 75.5 L 189.5 72 Z " /><path fill="rgb(0,0,0)" stroke="rgb(0,0,0)" stroke-width="1" opacity="1" d="M 61.5 79 L 60.5 81 L 61.5 79 Z " /><path fill="rgb(0,0,0)" stroke="rgb(0,0,0)" stroke-width="1" opacity="1" d="M 59.5 82 L 59 83.5 L 56.5 88 L 57 86.5 L 59.5 82 Z " /><path fill="rgb(0,0,0)" stroke="rgb(0,0,0)" stroke-width="1" opacity="1" d="M 37.5 86 L 36.5 88 L 37.5 86 Z " /><path fill="rgb(0,0,0)" stroke="rgb(0,0,0)" stroke-width="1" opacity="1" d="M 117.5 87 Q 120.8 87.8 120 92.5 L 119 92.5 Q 119.5 87.8 117.5 87 Z " /><path fill="rgb(0,0,0)" stroke="rgb(0,0,0)" stroke-width="1" opacity="1" d="M 35.5 89 L 35 90.5 L 31.5 98 L 31 96.5 L 35.5 89 Z " /><path fill="rgb(0,0,0)" stroke="rgb(0,0,0)" stroke-width="1" opacity="1" d="M 55.5 89 L 57 93.5 L 54.5 98 L 53 97.5 L 55 97 L 54.5 93 L 50 99 Q 53 97.8 52 101.5 L 53.5 104 L 48.5 98 L 44.5 99 L 44.5 98 L 52 94.5 L 55.5 89 Z " /><path fill="rgb(0,0,0)" stroke="rgb(0,0,0)" stroke-width="1" opacity="1" d="M 190.5 89 L 189 91.5 L 187 96 Q 194.8 97 200 101.5 L 197.5 102 L 187.5 97 L 184 100.5 L 174 118.5 L 163.5 130 L 161 130.5 L 171 138.5 L 169.5 138 L 156 127.5 L 155 125.5 L 159.5 129 L 161.5 129 L 170 120.5 L 183 99 L 185 98.5 L 185 96.5 L 190.5 89 Z " /><path fill="rgb(0,0,0)" stroke="rgb(0,0,0)" stroke-width="1" opacity="1" d="M 192.5 90 L 196 96 L 199 97.5 L 197.5 97 L 194 94.5 L 192.5 90 Z " /><path fill="rgb(0,0,0)" stroke="rgb(0,0,0)" stroke-width="1" opacity="1" d="M 67.5 95 L 66.5 97 L 67.5 95 Z " /><path fill="rgb(0,0,0)" stroke="rgb(0,0,0)" stroke-width="1" opacity="1" d="M 120.5 95 L 121 109.5 L 120 109.5 L 120.5 95 Z " /><path fill="rgb(0,0,0)" stroke="rgb(0,0,0)" stroke-width="1" opacity="1" d="M 133.5 96 L 134 106.5 L 133 106.5 L 133.5 96 Z " /><path fill="rgb(0,0,0)" stroke="rgb(0,0,0)" stroke-width="1" opacity="1" d="M 30.5 99 L 31 100.5 L 29.5 103 L 29 101.5 L 30.5 99 Z " /><path fill="rgb(0,0,0)" stroke="rgb(0,0,0)" stroke-width="1" opacity="1" d="M 85.5 101 L 84.5 103 L 85.5 101 Z " /><path fill="rgb(0,0,0)" stroke="rgb(0,0,0)" stroke-width="1" opacity="1" d="M 55.5 104 L 56.5 106 L 55.5 104 Z " /><path fill="rgb(0,0,0)" stroke="rgb(0,0,0)" stroke-width="1" opacity="1" d="M 81.5 105 L 79.5 108 L 81.5 105 Z " /><path fill="rgb(0,0,0)" stroke="rgb(0,0,0)" stroke-width="1" opacity="1" d="M 27.5 107 L 28 109.5 L 27 109.5 L 27.5 107 Z " /><path fill="rgb(0,0,0)" stroke="rgb(0,0,0)" stroke-width="1" opacity="1" d="M 77.5 108 L 75.5 111 L 73.5 112 L 74.5 110 L 77.5 108 Z " /><path fill="rgb(0,0,0)" stroke="rgb(0,0,0)" stroke-width="1" opacity="1" d="M 26.5 112 L 27 114.5 L 26 114.5 L 26.5 112 Z " /><path fill="rgb(0,0,0)" stroke="rgb(0,0,0)" stroke-width="1" opacity="1" d="M 71.5 112 L 70.5 114 L 59.5 119 L 60.5 117 L 71.5 112 Z " /><path fill="rgb(0,0,0)" stroke="rgb(0,0,0)" stroke-width="1" opacity="1" d="M 58.5 114 L 59.5 116 L 58.5 114 Z " /><path fill="rgb(0,0,0)" stroke="rgb(0,0,0)" stroke-width="1" opacity="1" d="M 46.5 116 L 49.5 120 L 46.5 116 Z " /><path fill="rgb(0,0,0)" stroke="rgb(0,0,0)" stroke-width="1" opacity="1" d="M 25.5 117 L 26 121.5 L 25 121.5 L 25.5 117 Z " /><path fill="rgb(0,0,0)" stroke="rgb(0,0,0)" stroke-width="1" opacity="1" d="M 53.5 118 L 54 120 L 56 120.5 L 50.5 122 L 50.5 121 Q 54.5 122.1 53.5 118 Z " /><path fill="rgb(0,0,0)" stroke="rgb(0,0,0)" stroke-width="1" opacity="1" d="M 17.5 123 L 18 125 L 22 125.5 L 18.5 126 L 17.5 123 Z " /><path fill="rgb(0,0,0)" stroke="rgb(0,0,0)" stroke-width="1" opacity="1" d="M 24.5 123 L 25 125 L 28 125.5 L 24 126 L 24.5 123 Z " /><path fill="rgb(0,0,0)" stroke="rgb(0,0,0)" stroke-width="1" opacity="1" d="M 36.5 124 L 35.5 126 L 30 125.5 L 36.5 124 Z " /><path fill="rgb(0,0,0)" stroke="rgb(0,0,0)" stroke-width="1" opacity="1" d="M 39.5 124 L 42 124.5 L 39.5 125 L 39.5 124 Z " /><path fill="rgb(0,0,0)" stroke="rgb(0,0,0)" stroke-width="1" opacity="1" d="M 15.5 125 Q 21.9 145.1 37.5 156 Q 48 164 62.5 168 L 82.5 169 L 102.5 165 L 116.5 159 L 116.5 160 L 101 166.5 L 110 172.5 L 108.5 172 L 98.5 167 L 86.5 170 L 66.5 170 L 56.5 168 L 47.5 163 Q 46 165.5 44.5 162 L 42.5 162 L 32 153.5 Q 32.8 151.3 30.5 152 Q 18 142.4 15.5 125 Z " /><path fill="rgb(0,0,0)" stroke="rgb(0,0,0)" stroke-width="1" opacity="1" d="M 198.5 133 L 200 133.5 L 200 200 L 70 199.5 L 116 175.5 L 113 173.5 L 114.5 174 L 118.5 174 L 178 143.5 L 177.5 142 L 179.5 143 L 198.5 133 Z " /><path fill="rgb(0,0,0)" stroke="rgb(0,0,0)" stroke-width="1" opacity="1" d="M 120.5 157 L 119.5 159 L 118 158.5 L 120.5 157 Z " /><path fill="rgb(0,0,0)" stroke="rgb(0,0,0)" stroke-width="1" opacity="1" d="M 127.5 157 L 130 157.5 L 127.5 158 L 127.5 157 Z " /><path fill="rgb(0,0,0)" stroke="rgb(0,0,0)" stroke-width="1" opacity="1" d="M 131.5 158 L 134 158.5 L 131.5 159 L 131.5 158 Z " /><path fill="rgb(0,0,0)" stroke="rgb(0,0,0)" stroke-width="1" opacity="1" d="M 136.5 159 L 141 159.5 L 136.5 160 L 136.5 159 Z " /><path fill="rgb(0,0,0)" stroke="rgb(0,0,0)" stroke-width="1" opacity="1" d="M 35.5 175 L 36 184.5 L 37 185.5 L 37 200 L 0.5 200 Q -0.8 199.8 0 193.5 L 35.5 175 Z " /><path fill="rgb(56,108,21)" stroke="rgb(56,108,21)" stroke-width="1" opacity="1" d="M 170.5 89 L 171 91.5 L 170 91.5 L 170.5 89 Z " /><path fill="rgb(129,177,193)" stroke="rgb(129,177,193)" stroke-width="1" opacity="1" d="M 111.5 10 Q 114.5 11.5 111.5 13 L 111.5 10 Z " /><path fill="rgb(129,177,193)" stroke="rgb(129,177,193)" stroke-width="1" opacity="1" d="M 108.5 13 L 110 13.5 L 105.5 17 L 108.5 13 Z " /><path fill="rgb(129,177,193)" stroke="rgb(129,177,193)" stroke-width="1" opacity="1" d="M 113.5 13 L 115 13.5 L 114 14.5 L 115.5 17 Q 113.7 13.2 112 16.5 L 112.5 18 L 111 15.5 L 113.5 13 Z " /><path fill="rgb(129,177,193)" stroke="rgb(129,177,193)" stroke-width="1" opacity="1" d="M 117.5 16 L 118.5 18 L 117.5 16 Z " /><path fill="rgb(129,177,193)" stroke="rgb(129,177,193)" stroke-width="1" opacity="1" d="M 110.5 18 L 110.5 20 L 114 22.5 L 116.5 26 Q 117.8 23.7 119 26.5 L 126 41.5 L 120.5 43 L 118 40.5 L 111 25.5 L 111 23.5 L 110.5 22 Q 108.7 24.8 107 20.5 L 109 20.5 L 110.5 18 Z " /><path fill="rgb(129,177,193)" stroke="rgb(129,177,193)" stroke-width="1" opacity="1" d="M 101.5 19 L 100.5 21 L 101.5 19 Z " /><path fill="rgb(129,177,193)" stroke="rgb(129,177,193)" stroke-width="1" opacity="1" d="M 113.5 19 Q 115.3 22.1 117 20.5 L 115.5 22 L 113.5 19 Z " /><path fill="rgb(129,177,193)" stroke="rgb(129,177,193)" stroke-width="1" opacity="1" d="M 121.5 23 L 122.5 25 L 121.5 23 Z " /><path fill="rgb(129,177,193)" stroke="rgb(129,177,193)" stroke-width="1" opacity="1" d="M 98.5 25 L 96.5 28 L 95.5 26 Q 97 28.5 98.5 25 Z " /><path fill="rgb(129,177,193)" stroke="rgb(129,177,193)" stroke-width="1" opacity="1" d="M 102.5 27 L 106.5 32 L 102 29 L 100.5 32 L 101 30.5 L 102.5 27 Z " /><path fill="rgb(129,177,193)" stroke="rgb(129,177,193)" stroke-width="1" opacity="1" d="M 126.5 28 L 133 38 L 137 40.5 L 134.5 39 L 130 35.5 L 126.5 28 Z " /><path fill="rgb(129,177,193)" stroke="rgb(129,177,193)" stroke-width="1" opacity="1" d="M 95.5 29 L 95 30.5 L 92.5 35 L 92 33.5 L 93 31.5 L 92.5 30 Q 94 32.5 95.5 29 Z " /><path fill="rgb(129,177,193)" stroke="rgb(129,177,193)" stroke-width="1" opacity="1" d="M 122.5 29 L 123.5 31 L 122.5 29 Z " /><path fill="rgb(129,177,193)" stroke="rgb(129,177,193)" stroke-width="1" opacity="1" d="M 99.5 33 L 100 34.5 L 98 37.5 L 102 42.5 L 100 41.5 L 97.5 38 L 96 37.5 L 99.5 33 Z " /><path fill="rgb(129,177,193)" stroke="rgb(129,177,193)" stroke-width="1" opacity="1" d="M 101.5 35 L 105 41.5 L 104 41.5 L 101 36.5 L 101.5 35 Z " /><path fill="rgb(129,177,193)" stroke="rgb(129,177,193)" stroke-width="1" opacity="1" d="M 125.5 37 L 126.5 39 L 125.5 37 Z " /><path fill="rgb(129,177,193)" stroke="rgb(129,177,193)" stroke-width="1" opacity="1" d="M 105.5 43 L 108 43.5 L 105.5 44 L 105.5 43 Z " /><path fill="rgb(129,177,193)" stroke="rgb(129,177,193)" stroke-width="1" opacity="1" d="M 110.5 43 L 113 43.5 L 110.5 44 L 110.5 43 Z " /><path fill="rgb(129,177,193)" stroke="rgb(129,177,193)" stroke-width="1" opacity="1" d="M 192.5 44 L 190.5 47 L 192.5 44 Z " /><path fill="rgb(129,177,193)" stroke="rgb(129,177,193)" stroke-width="1" opacity="1" d="M 192.5 47 L 193.5 49 L 192.5 47 Z " /><path fill="rgb(129,177,193)" stroke="rgb(129,177,193)" stroke-width="1" opacity="1" d="M 75.5 61 L 77.5 64 L 75.5 61 Z " /><path fill="rgb(129,177,193)" stroke="rgb(129,177,193)" stroke-width="1" opacity="1" d="M 70.5 74 L 70 75.5 Q 70.8 77.8 68.5 77 L 70.5 74 Z " /><path fill="rgb(129,177,193)" stroke="rgb(129,177,193)" stroke-width="1" opacity="1" d="M 63.5 75 L 62.5 77 L 63.5 75 Z " /><path fill="rgb(129,177,193)" stroke="rgb(129,177,193)" stroke-width="1" opacity="1" d="M 70.5 83 L 71 85.5 L 70 85.5 L 70.5 83 Z " /><path fill="rgb(129,177,193)" stroke="rgb(129,177,193)" stroke-width="1" opacity="1" d="M 125.5 90 L 132 99.5 L 132 107.5 L 131 107.5 Q 132.3 102.7 129 104 Q 130.5 107.8 127.5 107 L 126.5 110 Q 123.9 109.2 125 112.5 L 121 114.5 L 122 116.5 L 118 118 L 117 122 L 114 122.5 L 114.5 124 L 112.5 125 Q 111.2 122.7 110 125.5 Q 110.8 127.8 108.5 127 L 106 128 L 104.5 131 L 102.5 131 L 93 134.5 L 93.5 136 L 88.5 137 L 86 136.5 L 87 134.5 L 85 134.5 L 86 132.5 L 84 132 Q 85.3 129 81.5 130 L 70.5 135 L 68 134 L 67.5 136 L 65.5 135 L 65.5 137 L 62.5 136 L 62.5 138 L 58.5 137 Q 57 139.5 55.5 136 Q 50.1 137.9 51 134.5 L 50 134.5 L 49.5 136 L 46 134 L 45.5 132 L 43.5 133 L 39.5 130 Q 38.3 132.3 37 129.5 L 37.5 128 L 25 127.5 L 36.5 127 L 37.5 126 Q 38.8 128.2 43.5 127 L 50.5 125 L 59.5 129 L 61.5 129 L 67.5 130 L 69.5 129 L 73.5 131 L 74.5 130 L 77.5 129 L 79.5 130 L 83.5 128 Q 85 130.5 86.5 127 L 88.5 128 L 94.5 125 Q 95.8 127.3 97 124.5 L 97 123 L 100 123 Q 98.9 120.3 101.5 121 L 105 120 Q 103.9 117.3 106.5 118 L 113 112.5 L 115.5 108 Q 118.1 107.2 117 110.5 L 119 110.5 L 118 113.5 L 119.5 115 L 120 113 Q 122.7 114.1 122 111.5 L 121.5 110 L 123 109.5 L 123 100.5 L 124 96.5 L 123 94.5 L 125.5 90 Z " /><path fill="rgb(129,177,193)" stroke="rgb(129,177,193)" stroke-width="1" opacity="1" d="M 66.5 95 Q 69.5 96.5 66.5 98 L 66.5 95 Z " /><path fill="rgb(129,177,193)" stroke="rgb(129,177,193)" stroke-width="1" opacity="1" d="M 134.5 95 L 136 95.5 L 136 104.5 L 135 104.5 Q 135.7 97 134.5 95 Z " /><path fill="rgb(129,177,193)" stroke="rgb(129,177,193)" stroke-width="1" opacity="1" d="M 119.5 101 L 120 102.5 L 117.5 107 L 117 102.5 L 119 102.5 L 119.5 101 Z " /><path fill="rgb(129,177,193)" stroke="rgb(129,177,193)" stroke-width="1" opacity="1" d="M 27.5 114 L 28 116.5 L 27 116.5 L 27.5 114 Z " /><path fill="rgb(129,177,193)" stroke="rgb(129,177,193)" stroke-width="1" opacity="1" d="M 45.5 116 L 46.5 118 L 45.5 116 Z " /><path fill="rgb(129,177,193)" stroke="rgb(129,177,193)" stroke-width="1" opacity="1" d="M 165.5 117 L 168 117.5 L 165.5 118 L 165.5 117 Z " /><path fill="rgb(129,177,193)" stroke="rgb(129,177,193)" stroke-width="1" opacity="1" d="M 36.5 118 L 40 119 Q 41.5 123.5 37 122 L 36.5 118 Z " /><path fill="rgb(129,177,193)" stroke="rgb(129,177,193)" stroke-width="1" opacity="1" d="M 79.5 134 L 82 135.5 Q 83.3 140.3 80 139 L 79.5 137 Q 77.8 139.8 76 135.5 L 77.5 136 L 80 135.5 L 79.5 134 Z " /><path fill="rgb(129,177,193)" stroke="rgb(129,177,193)" stroke-width="1" opacity="1" d="M 68.5 138 L 72.5 139 L 74 138.5 Q 73.3 140.8 69.5 140 L 68.5 138 Z " /><path fill="rgb(129,177,193)" stroke="rgb(129,177,193)" stroke-width="1" opacity="1" d="M 73.5 144 L 75 146.5 L 73 145.5 L 73.5 144 Z " /><path fill="rgb(129,177,193)" stroke="rgb(129,177,193)" stroke-width="1" opacity="1" d="M 71.5 148 L 70.5 150 L 71.5 148 Z " /><path fill="rgb(129,177,193)" stroke="rgb(129,177,193)" stroke-width="1" opacity="1" d="M 104.5 158 L 106 158.5 L 103.5 160 L 104.5 158 Z " /><path fill="rgb(129,177,193)" stroke="rgb(129,177,193)" stroke-width="1" opacity="1" d="M 94.5 159 L 95.5 161 L 94.5 159 Z " /><path fill="rgb(4,145,181)" stroke="rgb(4,145,181)" stroke-width="1" opacity="1" d="M 137.5 6 L 138 14.5 L 139 15.5 L 139 32 L 200 16 L 200 30.5 L 197.5 33 L 188 41.5 L 180 54 L 178 54 Q 179.1 56.7 176.5 56 L 173.5 57 L 158 48.5 L 158 39 L 152.5 39 L 151.5 40 L 141.5 40 L 133 32.5 L 126 19.5 L 125 14 L 137.5 6 Z " /><path fill="rgb(4,145,181)" stroke="rgb(4,145,181)" stroke-width="1" opacity="1" d="M 72.5 49 L 72 50.5 L 70 55.5 Q 72.3 56.8 69.5 58 Q 51.6 66.1 40 80.5 L 28 102.5 L 23.5 122 L 21 116 Q 18.3 114.9 19 117.5 Q 16.2 119.5 17 124 Q 12.5 122.3 14 127.5 Q 20.4 146.1 34.5 157 Q 43.7 165.3 57.5 169 L 66.5 171 L 86.5 171 L 100.5 168 Q 105.6 173.4 114 175.5 L 67.5 200 L 38 200 L 37 196.5 L 36.5 174 L 0 192 L 0 97.5 L 1.5 96 L 72.5 49 Z " /><path fill="rgb(4,145,181)" stroke="rgb(4,145,181)" stroke-width="1" opacity="1" d="M 186.5 99 L 196.5 102 L 200 104.5 L 200 131.5 L 198.5 132 L 178.5 142 L 163 131.5 L 177 115.5 L 186.5 99 Z " /><path fill="rgb(60,113,129)" stroke="rgb(60,113,129)" stroke-width="1" opacity="1" d="M 117.5 6 L 120 7.5 L 119 9.5 L 121 9.5 L 119.5 14 L 118 13.5 L 119 15.5 L 117 14.5 L 114 8.5 L 116 8.5 L 117.5 6 Z " /><path fill="rgb(60,113,129)" stroke="rgb(60,113,129)" stroke-width="1" opacity="1" d="M 138.5 12 L 139 14.5 L 138 14.5 L 138.5 12 Z " /><path fill="rgb(60,113,129)" stroke="rgb(60,113,129)" stroke-width="1" opacity="1" d="M 110.5 16 L 109.5 18 L 110.5 16 Z " /><path fill="rgb(60,113,129)" stroke="rgb(60,113,129)" stroke-width="1" opacity="1" d="M 100.5 43 L 103 43.5 L 100.5 44 L 100.5 43 Z " /><path fill="rgb(60,113,129)" stroke="rgb(60,113,129)" stroke-width="1" opacity="1" d="M 181.5 54 L 183 56.5 L 182 56.5 L 181.5 54 Z " /><path fill="rgb(60,113,129)" stroke="rgb(60,113,129)" stroke-width="1" opacity="1" d="M 181.5 61 L 184 61.5 L 181.5 62 L 181.5 61 Z " /><path fill="rgb(60,113,129)" stroke="rgb(60,113,129)" stroke-width="1" opacity="1" d="M 74.5 70 L 72.5 73 L 71 72.5 L 74.5 70 Z " /><path fill="rgb(60,113,129)" stroke="rgb(60,113,129)" stroke-width="1" opacity="1" d="M 165.5 70 L 166.5 72 L 165.5 70 Z " /><path fill="rgb(60,113,129)" stroke="rgb(60,113,129)" stroke-width="1" opacity="1" d="M 48.5 74 L 44.5 79 L 48.5 74 Z " /><path fill="rgb(60,113,129)" stroke="rgb(60,113,129)" stroke-width="1" opacity="1" d="M 63.5 76 L 62.5 78 L 63.5 76 Z " /><path fill="rgb(60,113,129)" stroke="rgb(60,113,129)" stroke-width="1" opacity="1" d="M 67.5 77 Q 70.1 76.2 69 79.5 L 68 79.5 L 67.5 77 Z " /><path fill="rgb(60,113,129)" stroke="rgb(60,113,129)" stroke-width="1" opacity="1" d="M 52.5 84 L 53.5 86 L 52.5 84 Z " /><path fill="rgb(60,113,129)" stroke="rgb(60,113,129)" stroke-width="1" opacity="1" d="M 190.5 90 L 189.5 92 L 190.5 90 Z " /><path fill="rgb(60,113,129)" stroke="rgb(60,113,129)" stroke-width="1" opacity="1" d="M 67.5 92 L 68.5 94 L 66 93.5 L 67.5 92 Z " /><path fill="rgb(60,113,129)" stroke="rgb(60,113,129)" stroke-width="1" opacity="1" d="M 59.5 97 L 58.5 99 L 59.5 97 Z " /><path fill="rgb(60,113,129)" stroke="rgb(60,113,129)" stroke-width="1" opacity="1" d="M 143.5 100 L 151 106.5 L 150 109 L 148 109.5 L 148 111.5 L 146 114.5 L 146.5 116 Q 144.3 115.3 145 117.5 L 139 127 Q 136.3 125.9 137 128.5 L 128 136 L 128 139 L 125 139 Q 126.1 141.7 123.5 141 Q 120.2 145.6 114 146 Q 115.1 148.7 112.5 148 L 108.5 151 L 105.5 151 Q 103.3 154.3 98 154.5 L 98.5 156 L 96.5 155 L 94.5 159 L 94.5 157 L 91.5 158 L 91.5 157 L 93 156.5 Q 90.8 155.3 93.5 154 L 95 154.5 L 93.5 152 L 92 151.5 L 92.5 150 Q 89.9 150.8 91 147.5 L 89 142.5 L 90 142.5 L 91 146 L 93.5 147 L 97.5 144 Q 99 146.5 100.5 143 L 103.5 142 L 104.5 143 L 107.5 140 L 111.5 137 L 113 137.5 Q 112.3 135.3 114.5 136 L 130 122.5 L 136 114.5 L 143.5 100 Z " /><path fill="rgb(60,113,129)" stroke="rgb(60,113,129)" stroke-width="1" opacity="1" d="M 54.5 101 L 53.5 103 L 54.5 101 Z " /><path fill="rgb(60,113,129)" stroke="rgb(60,113,129)" stroke-width="1" opacity="1" d="M 180.5 101 L 180 102.5 Q 174.6 115.1 165.5 124 L 165.5 121 L 167 121.5 Q 169.6 120.1 169 115.5 L 180.5 101 Z " /><path fill="rgb(60,113,129)" stroke="rgb(60,113,129)" stroke-width="1" opacity="1" d="M 134.5 102 L 135 106.5 L 134 106.5 L 134.5 102 Z " /><path fill="rgb(60,113,129)" stroke="rgb(60,113,129)" stroke-width="1" opacity="1" d="M 56.5 104 L 55.5 106 L 56.5 104 Z " /><path fill="rgb(60,113,129)" stroke="rgb(60,113,129)" stroke-width="1" opacity="1" d="M 132.5 104 L 133 106.5 L 132 106.5 L 132.5 104 Z " /><path fill="rgb(60,113,129)" stroke="rgb(60,113,129)" stroke-width="1" opacity="1" d="M 119.5 105 L 120 106.5 L 118 107.5 L 119.5 105 Z " /><path fill="rgb(60,113,129)" stroke="rgb(60,113,129)" stroke-width="1" opacity="1" d="M 79.5 106 L 80.5 108 L 79.5 106 Z " /><path fill="rgb(60,113,129)" stroke="rgb(60,113,129)" stroke-width="1" opacity="1" d="M 120.5 112 L 119.5 114 L 120.5 112 Z " /><path fill="rgb(60,113,129)" stroke="rgb(60,113,129)" stroke-width="1" opacity="1" d="M 166.5 115 L 167.5 117 L 166.5 115 Z " /><path fill="rgb(60,113,129)" stroke="rgb(60,113,129)" stroke-width="1" opacity="1" d="M 27.5 121 L 28.5 123 L 27.5 121 Z " /><path fill="rgb(60,113,129)" stroke="rgb(60,113,129)" stroke-width="1" opacity="1" d="M 162.5 122 L 161.5 124 L 160 123.5 L 162.5 122 Z " /><path fill="rgb(60,113,129)" stroke="rgb(60,113,129)" stroke-width="1" opacity="1" d="M 170.5 123 L 168.5 126 L 170.5 123 Z " /><path fill="rgb(60,113,129)" stroke="rgb(60,113,129)" stroke-width="1" opacity="1" d="M 163.5 124 L 164.5 126 L 163.5 124 Z " /><path fill="rgb(60,113,129)" stroke="rgb(60,113,129)" stroke-width="1" opacity="1" d="M 165.5 128 L 163.5 131 L 165.5 128 Z " /><path fill="rgb(60,113,129)" stroke="rgb(60,113,129)" stroke-width="1" opacity="1" d="M 20.5 130 L 26 133 Q 24.9 135.7 27.5 135 L 32.5 139 L 42.5 144 L 45.5 144 L 47.5 146 L 49.5 146 L 51.5 147 L 53.5 147 L 59 148 L 59.5 145 L 62 149.5 L 61.5 151 L 63 151.5 L 62 153.5 L 64 153.5 L 63 156.5 L 65 159.5 L 63.5 159 L 56.5 157 L 54.5 157 L 38.5 153 L 40.5 157 L 25 142.5 L 25.5 141 L 23 139.5 L 21 136.5 L 22 134.5 L 20 134.5 L 21 132.5 L 19 132.5 L 20.5 130 Z M 35 150 L 37 153 L 38 153 L 35 150 Z " /><path fill="rgb(60,113,129)" stroke="rgb(60,113,129)" stroke-width="1" opacity="1" d="M 65.5 143 L 65 144.5 Q 64.3 148.3 66.5 149 L 69.5 148 L 69.5 150 Q 73.3 151.3 72 147.5 L 74 146.5 L 74 150.5 L 72 155.5 L 73 157.5 L 72 157.5 L 71.5 156 L 70.5 158 L 68 157.5 L 69 155.5 L 67 155.5 L 68 153 L 66 152.5 L 66.5 151 Q 63.9 151.8 65 148.5 L 63 144 L 65.5 143 Z " /><path fill="rgb(60,113,129)" stroke="rgb(60,113,129)" stroke-width="1" opacity="1" d="M 77.5 145 L 80 149.5 L 78 149.5 Q 78.8 151.8 76.5 151 L 77 149.5 L 77.5 145 Z " /><path fill="rgb(60,113,129)" stroke="rgb(60,113,129)" stroke-width="1" opacity="1" d="M 82.5 145 L 87 146 Q 88.1 148.7 85.5 148 L 82.5 145 Z " /><path fill="rgb(60,113,129)" stroke="rgb(60,113,129)" stroke-width="1" opacity="1" d="M 88.5 150 L 88 151.5 L 89 153.5 L 87.5 153 Q 84.9 153.7 86 151 L 88.5 150 Z " /><path fill="rgb(60,113,129)" stroke="rgb(60,113,129)" stroke-width="1" opacity="1" d="M 77.5 152 L 79 156 Q 76.3 157.1 77 154.5 Q 74.8 153.3 77.5 152 Z " /><path fill="rgb(60,113,129)" stroke="rgb(60,113,129)" stroke-width="1" opacity="1" d="M 80.5 153 L 83.5 154 L 85 153.5 L 83.5 156 L 80 155 L 80.5 153 Z " /><path fill="rgb(60,113,129)" stroke="rgb(60,113,129)" stroke-width="1" opacity="1" d="M 117.5 154 L 120 155 Q 121.1 157.7 118.5 157 L 107.5 162 L 108 158.5 L 108.5 157 L 109.5 159 L 110 157 L 117.5 154 Z " /><path fill="rgb(60,113,129)" stroke="rgb(60,113,129)" stroke-width="1" opacity="1" d="M 75.5 156 L 75 157.5 L 74.5 159 L 74 157.5 L 75.5 156 Z " /><path fill="rgb(60,113,129)" stroke="rgb(60,113,129)" stroke-width="1" opacity="1" d="M 98.5 162 Q 102.3 161.3 103 163.5 L 91.5 166 L 91.5 165 L 98.5 162 Z " /><path fill="rgb(60,113,129)" stroke="rgb(60,113,129)" stroke-width="1" opacity="1" d="M 86.5 164 Q 89.5 165.5 86.5 167 L 74.5 168 L 73.5 167 L 65 166.5 L 81.5 166 L 86.5 164 Z " /><path fill="rgb(230,241,245)" stroke="rgb(230,241,245)" stroke-width="1" opacity="1" d="M 114.5 11 L 112.5 14 L 106 19.5 L 103.5 23 L 103 21.5 L 107.5 16 L 114.5 11 Z " /><path fill="rgb(230,241,245)" stroke="rgb(230,241,245)" stroke-width="1" opacity="1" d="M 103.5 18 L 99.5 23 L 103.5 18 Z " /><path fill="rgb(230,241,245)" stroke="rgb(230,241,245)" stroke-width="1" opacity="1" d="M 99.5 25 L 102 26.5 Q 99.3 36.3 91.5 41 Q 89.3 41.8 90 39.5 L 99.5 25 Z " /><path fill="rgb(230,241,245)" stroke="rgb(230,241,245)" stroke-width="1" opacity="1" d="M 96.5 26 L 95.5 28 L 96.5 26 Z " /><path fill="rgb(230,241,245)" stroke="rgb(230,241,245)" stroke-width="1" opacity="1" d="M 90.5 34 L 91 35.5 L 88 37.5 L 90.5 34 Z " /><path fill="rgb(230,241,245)" stroke="rgb(230,241,245)" stroke-width="1" opacity="1" d="M 193.5 40 L 192 42.5 L 191 46 L 189 45.5 L 193.5 40 Z " /><path fill="rgb(230,241,245)" stroke="rgb(230,241,245)" stroke-width="1" opacity="1" d="M 148.5 42 L 155.5 42 L 156 43.5 Q 153.5 45 155 50.5 L 157 60.5 L 159 63.5 L 157.5 64 L 115 46.5 L 147.5 43 L 148.5 42 Z " /><path fill="rgb(230,241,245)" stroke="rgb(230,241,245)" stroke-width="1" opacity="1" d="M 186.5 48 L 189 52.5 L 187 51.5 L 186.5 50 L 185 50.5 L 186.5 48 Z " /><path fill="rgb(230,241,245)" stroke="rgb(230,241,245)" stroke-width="1" opacity="1" d="M 160.5 53 L 164 55 L 163.5 57 L 161 56.5 L 160.5 53 Z " /><path fill="rgb(230,241,245)" stroke="rgb(230,241,245)" stroke-width="1" opacity="1" d="M 186.5 53 L 189.5 58 L 190 56.5 L 189 54.5 L 190 54.5 Q 192.7 56.8 192 62.5 L 190 61.5 L 186 54.5 L 186.5 53 Z " /><path fill="rgb(230,241,245)" stroke="rgb(230,241,245)" stroke-width="1" opacity="1" d="M 181.5 55 L 182 57 L 180 57.5 L 183 58.5 L 180.5 59 Q 177 57 181.5 55 Z " /><path fill="rgb(230,241,245)" stroke="rgb(230,241,245)" stroke-width="1" opacity="1" d="M 164.5 58 L 169 64.5 L 166.5 65 L 164 62.5 L 163 60.5 L 165 60.5 L 164.5 58 Z M 166 61 L 165 63 L 167 64 L 166 61 Z " /><path fill="rgb(230,241,245)" stroke="rgb(230,241,245)" stroke-width="1" opacity="1" d="M 170.5 58 L 177 61.5 L 182 77.5 L 181 77.5 L 170.5 58 Z M 174 61 L 177 69 L 178 69 L 176 63 L 174 61 Z " /><path fill="rgb(230,241,245)" stroke="rgb(230,241,245)" stroke-width="1" opacity="1" d="M 71.5 59 L 73 59.5 L 68 62.5 L 70.5 63 L 72.5 62 Q 78.3 63.3 81 67.5 L 83 71.5 L 82 74.5 L 83 77 L 81 77 L 81 79 Q 78.3 77.9 79 80.5 Q 81.3 81.7 78.5 83 L 76 82 Q 77.2 85.7 72 84 L 72 88.5 L 62.5 99 L 57.5 100 L 57.5 99 Q 65.6 97.6 69 91.5 Q 71.6 88.6 71 82.5 L 69 78.5 L 74.5 71 Q 77.1 71.7 76 69 Q 66.5 70.8 61 77.5 L 53 91.5 L 48.5 96 L 51 92.5 L 57 78.5 L 61.5 73 L 70 67.5 L 69.5 66 Q 61.1 69.1 56 75.5 L 50 90.5 L 46.5 94 L 49 90.5 Q 51.2 78.2 58.5 71 L 61 69.5 L 58.5 68 L 47 77.5 Q 38.3 85.8 33.5 98 L 33 96.5 Q 39.9 80.9 52.5 71 L 71.5 59 Z M 62 66 Q 59 68 62 69 L 64 68 L 62 66 Z " /><path fill="rgb(230,241,245)" stroke="rgb(230,241,245)" stroke-width="1" opacity="1" d="M 181 62 L 184 62.5 L 182 63 L 181.5 65 L 181 62 Z " /><path fill="rgb(230,241,245)" stroke="rgb(230,241,245)" stroke-width="1" opacity="1" d="M 167.5 66 L 171 67.5 L 174 74.5 L 172 75.5 L 172 72.5 L 167.5 66 Z " /><path fill="rgb(230,241,245)" stroke="rgb(230,241,245)" stroke-width="1" opacity="1" d="M 190.5 69 L 196 76.5 Q 194 80 192 75.5 L 191 72.5 L 191.5 71 Q 188.7 71.7 190.5 69 Z M 193 72 L 192 74 L 194 75 L 193 72 Z " /><path fill="rgb(230,241,245)" stroke="rgb(230,241,245)" stroke-width="1" opacity="1" d="M 183.5 70 L 184.5 72 L 183.5 70 Z " /><path fill="rgb(230,241,245)" stroke="rgb(230,241,245)" stroke-width="1" opacity="1" d="M 70.5 72 L 68.5 75 L 66.5 76 L 67.5 74 L 70.5 72 Z " /><path fill="rgb(230,241,245)" stroke="rgb(230,241,245)" stroke-width="1" opacity="1" d="M 63.5 79 Q 67.9 77.5 67 80.5 L 69 85.5 L 68 89.5 L 64.5 94 L 60 96 L 61 91.5 L 58 86.5 L 63.5 79 Z " /><path fill="rgb(230,241,245)" stroke="rgb(230,241,245)" stroke-width="1" opacity="1" d="M 114.5 86 L 118 89.5 L 119 98.5 L 118 98.5 Q 119 94 116.5 93 L 115.5 95 L 113 90 Q 116.7 91.5 116 88.5 L 114.5 86 Z " /><path fill="rgb(230,241,245)" stroke="rgb(230,241,245)" stroke-width="1" opacity="1" d="M 57.5 89 L 58 91.5 L 57 91.5 L 57.5 89 Z " /><path fill="rgb(230,241,245)" stroke="rgb(230,241,245)" stroke-width="1" opacity="1" d="M 190.5 91 L 196 97.5 L 194.5 97 L 188 94.5 L 190 94 L 190.5 91 Z " /><path fill="rgb(230,241,245)" stroke="rgb(230,241,245)" stroke-width="1" opacity="1" d="M 70.5 93 L 71 94.5 Q 66.9 101.4 58 103.5 L 61 104.5 L 57.5 105 L 54 102.5 L 55.5 102 L 57.5 102 Q 65.9 101.4 69 95.5 L 70.5 93 Z " /><path fill="rgb(230,241,245)" stroke="rgb(230,241,245)" stroke-width="1" opacity="1" d="M 80.5 93 L 83.5 98 Q 86.1 97.2 85 100.5 L 74.5 109 L 68.5 106 L 66.5 109 L 65 106.5 Q 66.8 108.1 68.5 105 L 75.5 108 L 84 100.5 L 80 94.5 L 80.5 93 Z " /><path fill="rgb(230,241,245)" stroke="rgb(230,241,245)" stroke-width="1" opacity="1" d="M 83.5 93 Q 84.5 97 90.5 96 L 93 94.5 Q 93.8 96.8 91.5 96 Q 90.3 98.3 85.5 97 L 83.5 93 Z " /><path fill="rgb(230,241,245)" stroke="rgb(230,241,245)" stroke-width="1" opacity="1" d="M 94.5 96 L 91.5 100 L 90 99.5 L 94.5 96 Z " /><path fill="rgb(230,241,245)" stroke="rgb(230,241,245)" stroke-width="1" opacity="1" d="M 48.5 99 L 54 105.5 L 48 100.5 L 48.5 99 Z " /><path fill="rgb(230,241,245)" stroke="rgb(230,241,245)" stroke-width="1" opacity="1" d="M 86.5 102 L 87 103.5 Q 77.9 113.9 63.5 119 L 63.5 118 Q 76.4 113.4 85 104.5 L 86.5 102 Z " /><path fill="rgb(230,241,245)" stroke="rgb(230,241,245)" stroke-width="1" opacity="1" d="M 69 108 L 73 110.5 L 68.5 113 L 68 111.5 L 69 108 Z " /><path fill="rgb(230,241,245)" stroke="rgb(230,241,245)" stroke-width="1" opacity="1" d="M 57.5 110 L 61.5 115 L 65.5 113 L 64.5 115 L 61.5 116 L 57.5 110 Z " /><path fill="rgb(230,241,245)" stroke="rgb(230,241,245)" stroke-width="1" opacity="1" d="M 52.5 113 L 53 115.5 L 52 115.5 L 52.5 113 Z " /><path fill="rgb(230,241,245)" stroke="rgb(230,241,245)" stroke-width="1" opacity="1" d="M 56.5 113 L 59 118 L 54.5 119 L 55 117.5 Q 54.3 113.8 56.5 113 Z " /><path fill="rgb(230,241,245)" stroke="rgb(230,241,245)" stroke-width="1" opacity="1" d="M 46.5 114 L 51.5 120 L 46.5 114 Z " /><path fill="rgb(230,241,245)" stroke="rgb(230,241,245)" stroke-width="1" opacity="1" d="M 31.5 116 L 35 123.5 L 29 124 L 31.5 116 Z " /><path fill="rgb(230,241,245)" stroke="rgb(230,241,245)" stroke-width="1" opacity="1" d="M 44.5 116 L 49 122 L 43 123 L 44.5 116 Z " /><path fill="rgb(230,241,245)" stroke="rgb(230,241,245)" stroke-width="1" opacity="1" d="M 19 120 Q 21.7 118.9 21 121.5 L 22.5 124 Q 16.8 125.6 19 120 Z " /><path fill="rgb(230,241,245)" stroke="rgb(230,241,245)" stroke-width="1" opacity="1" d="M 158.5 126 L 159.5 128 L 158.5 126 Z " /><path fill="rgb(230,241,245)" stroke="rgb(230,241,245)" stroke-width="1" opacity="1" d="M 81.5 131 Q 84.8 129.9 84 132.5 L 93 154.5 L 68.5 163 L 58 140.5 L 81.5 131 Z M 81 133 L 61 140 L 62 146 L 69 161 L 91 154 L 83 135 Q 84 132 81 133 Z " /><path fill="rgb(230,241,245)" stroke="rgb(230,241,245)" stroke-width="1" opacity="1" d="M 76 137 Q 78.7 135.9 78 138.5 L 75 157 L 73 156.5 L 75 149.5 L 76 137 Z " /><path fill="rgb(230,241,245)" stroke="rgb(230,241,245)" stroke-width="1" opacity="1" d="M 67 142 L 73 144.5 L 71.5 147 Q 70 144.5 68.5 148 Q 64.3 149.3 66 144.5 L 67 142 Z " /><path fill="rgb(230,241,245)" stroke="rgb(230,241,245)" stroke-width="1" opacity="1" d="M 80.5 146 Q 83.5 145.1 82 149.5 L 84.5 148 Q 87.5 147.2 86 151 L 81.5 151 L 78 153 Q 76.5 149.3 79.5 150 L 81 150.5 L 79 147.5 L 80.5 146 Z " /><path fill="rgb(218,2,1)" stroke="rgb(218,2,1)" stroke-width="1" opacity="1" d="M 73 53 L 88.5 58 L 171 92.5 Q 168.4 105.4 159.5 112 L 157 110.5 L 148.5 100 L 131.5 90 L 99.5 77 Q 83.8 68.6 73 55.5 L 73 53 Z " /><path fill="rgb(7,165,29)" stroke="rgb(7,165,29)" stroke-width="1" opacity="1" d="M 81.5 39 Q 86.3 43.7 94.5 45 L 113.5 46 L 160 65 L 169 82.5 L 170 90.5 L 168.5 90 L 82.5 56 L 74 51.5 L 81.5 39 Z " /><path fill="rgb(177,208,217)" stroke="rgb(177,208,217)" stroke-width="1" opacity="1" d="M 113.5 9 L 113.5 12 L 111.5 12 L 110 11.5 L 113.5 9 Z " /><path fill="rgb(177,208,217)" stroke="rgb(177,208,217)" stroke-width="1" opacity="1" d="M 111.5 14 L 110.5 16 L 111.5 14 Z " /><path fill="rgb(177,208,217)" stroke="rgb(177,208,217)" stroke-width="1" opacity="1" d="M 104.5 17 L 106.5 19 L 109 17.5 L 107 20.5 L 114 30.5 L 119 42.5 L 114 43 Q 111.4 33.2 103.5 27 L 98 24 L 97.5 26 L 97 24.5 L 104 18.5 L 104.5 17 Z M 106 19 L 103 23 L 106 21 L 106 19 Z " /><path fill="rgb(177,208,217)" stroke="rgb(177,208,217)" stroke-width="1" opacity="1" d="M 94.5 28 L 95 29.5 L 91.5 34 L 91 32.5 L 94.5 28 Z " /><path fill="rgb(177,208,217)" stroke="rgb(177,208,217)" stroke-width="1" opacity="1" d="M 103.5 36 L 108 42.5 L 105 40.5 L 103.5 36 Z " /><path fill="rgb(177,208,217)" stroke="rgb(177,208,217)" stroke-width="1" opacity="1" d="M 89.5 37 L 92 37.5 Q 90.3 41.7 88.5 39 L 87 38.5 L 89.5 37 Z " /><path fill="rgb(177,208,217)" stroke="rgb(177,208,217)" stroke-width="1" opacity="1" d="M 95.5 37 L 100 43 L 93.5 42 L 92 40.5 L 95.5 37 Z " /><path fill="rgb(177,208,217)" stroke="rgb(177,208,217)" stroke-width="1" opacity="1" d="M 192.5 40 L 194 43.5 L 196 53 Q 193.3 54.1 194 51.5 L 191 47.5 L 193 48.5 L 193.5 50 L 194 46.5 L 191 41.5 L 192.5 40 Z " /><path fill="rgb(177,208,217)" stroke="rgb(177,208,217)" stroke-width="1" opacity="1" d="M 155.5 44 L 156 46.5 L 155 46.5 L 155.5 44 Z " /><path fill="rgb(177,208,217)" stroke="rgb(177,208,217)" stroke-width="1" opacity="1" d="M 188.5 46 L 189 47.5 L 187 48.5 L 188.5 46 Z " /><path fill="rgb(177,208,217)" stroke="rgb(177,208,217)" stroke-width="1" opacity="1" d="M 185 51 L 190 53.5 L 187 55 L 185 51 Z " /><path fill="rgb(177,208,217)" stroke="rgb(177,208,217)" stroke-width="1" opacity="1" d="M 190.5 55 L 190 56.5 L 190.5 58 L 192 57.5 L 190.5 60 L 189.5 58 L 188 58.5 L 188.5 56 L 190.5 55 Z " /><path fill="rgb(177,208,217)" stroke="rgb(177,208,217)" stroke-width="1" opacity="1" d="M 162.5 56 L 165 57.5 L 165 59.5 L 168.5 65 L 170 65.5 L 169.5 68 L 166 65.5 Q 168.5 64 165 62.5 L 163.5 60 L 162 59.5 L 162.5 58 L 161 57.5 L 162.5 56 Z " /><path fill="rgb(177,208,217)" stroke="rgb(177,208,217)" stroke-width="1" opacity="1" d="M 180.5 57 L 182 57.5 L 179.5 59 L 180.5 57 Z " /><path fill="rgb(177,208,217)" stroke="rgb(177,208,217)" stroke-width="1" opacity="1" d="M 72.5 60 L 75.5 62 L 76.5 64 L 71.5 62 L 65.5 65 L 66.5 63 L 72.5 60 Z " /><path fill="rgb(177,208,217)" stroke="rgb(177,208,217)" stroke-width="1" opacity="1" d="M 173.5 61 L 176 62.5 L 176.5 64 L 178 63.5 L 177 65.5 L 178.5 69 L 180 68.5 L 178.5 71 L 177.5 69 L 176 69.5 L 177 67.5 L 173.5 61 Z " /><path fill="rgb(177,208,217)" stroke="rgb(177,208,217)" stroke-width="1" opacity="1" d="M 182 63 Q 187.3 61.2 185 68.5 L 186 71.5 L 184 72.5 Q 186.5 71 183 69.5 L 184 65.5 L 183 65.5 L 182.5 67 Q 179.8 65.8 182 64.5 L 182 63 Z " /><path fill="rgb(177,208,217)" stroke="rgb(177,208,217)" stroke-width="1" opacity="1" d="M 60.5 65 L 62.5 66 Q 63.7 63.8 65 66.5 L 60 70.5 L 60.5 72 L 58.5 71 L 56 74.5 L 56.5 76 Q 55.2 73.8 54 76.5 L 52 82.5 L 52.5 84 L 51 83.5 L 50 87.5 L 50.5 89 L 49 88.5 L 47 92.5 L 47.5 94 L 46 93.5 Q 44.9 96.8 47.5 96 L 47.5 97 L 43.5 96 L 42 96.5 Q 42.8 94.3 40.5 95 L 39 96.5 L 42.5 100 Q 44 97.5 45.5 101 Q 47.8 101.8 47 99.5 L 48 99.5 L 53.5 106 L 55 105.5 L 55.5 107 L 57 106.5 Q 56.3 108.8 58.5 108 L 60.5 107 L 62.5 108 L 66 106.5 Q 64.3 102.3 62.5 105 L 58 103.5 L 61 102.5 L 60.5 101 L 62.5 102 L 65 101.5 L 69 96.5 L 68.5 95 Q 69.8 97.3 71 94.5 Q 71.8 92.3 69.5 93 L 68.5 91 Q 69.8 93.3 71 90.5 L 72 84 L 76 84 Q 74.9 81.3 77.5 82 L 79 79 L 81 79 L 81 77 Q 83.7 78.1 83 75.5 L 82 72.5 L 83 70.5 L 80 66.5 L 85.5 71 L 103.5 82 L 106 82 L 107.5 85 L 109.5 84 Q 111 87.5 112.5 85 Q 114.8 84.3 114 86.5 L 117 87.5 L 116 89.5 L 117 91.5 L 116 91.5 Q 116.8 88.9 113.5 90 L 111 90.5 L 112 95.5 L 107 104 Q 104.3 102.9 105 105.5 L 97 111 L 96.5 113 L 95 112.5 Q 95.8 115.1 92.5 114 L 88.5 117 L 86.5 117 L 77.5 120 L 75.5 120 L 72.5 119 L 67.5 120 L 67.5 117 L 69.5 117 L 72.5 115 L 72.5 113 L 75.5 114 L 77 112.5 Q 76.3 110.3 78.5 111 L 78.5 109 Q 80 111.5 81.5 108 L 84 106.5 Q 81.7 105.3 84.5 104 L 84.5 106 Q 86.8 106.8 86 104.5 L 87 101 Q 89.7 102.1 89 99.5 L 90.5 100 L 95 96.5 Q 92.8 91.8 90.5 96 L 86.5 96 Q 85.1 92 80 93 L 81.5 97 Q 82.8 94.8 84 97.5 L 84 99.5 L 83 101.5 Q 85.8 103.3 81.5 105 Q 80 102.5 78.5 106 L 77 106.5 L 77.5 108 L 75.5 108 L 68.5 105 L 66 108.5 L 66 110.5 L 64.5 114 L 62.5 115 L 60 113.5 L 60.5 112 L 55.5 110 L 52 111.5 L 54 112.5 L 52.5 113 L 51 112.5 L 53 116.5 L 51.5 119 L 49.5 114 L 47.5 115 L 47.5 113 L 42 116.5 L 41.5 118 L 41 116.5 L 43.5 113 Q 46.8 114.1 46 111.5 L 42 110 L 40.5 107 Q 38.3 107.8 39 105.5 L 36 104 L 35.5 101 L 34 101.5 L 35 97.5 L 34.5 96 L 36 96.5 L 35 94.5 L 37 93.5 L 36.5 92 L 38 91.5 L 37.5 88 L 39 88.5 L 40 86.5 L 39.5 85 L 41 85.5 L 48.5 76 L 54 71.5 L 53.5 70 L 55.5 71 Q 59.2 69 57.5 67 L 59.5 68 L 60.5 65 Z " /><path fill="rgb(177,208,217)" stroke="rgb(177,208,217)" stroke-width="1" opacity="1" d="M 71 70 L 73 70.5 L 71 71.5 L 71 70 Z " /><path fill="rgb(177,208,217)" stroke="rgb(177,208,217)" stroke-width="1" opacity="1" d="M 172.5 70 L 173 71.5 L 171 72.5 L 172.5 70 Z " /><path fill="rgb(177,208,217)" stroke="rgb(177,208,217)" stroke-width="1" opacity="1" d="M 192.5 70 L 194 73.5 L 193.5 75 L 192 72 L 190 71.5 L 192.5 70 Z " /><path fill="rgb(177,208,217)" stroke="rgb(177,208,217)" stroke-width="1" opacity="1" d="M 180.5 71 L 179.5 73 L 180.5 71 Z " /><path fill="rgb(177,208,217)" stroke="rgb(177,208,217)" stroke-width="1" opacity="1" d="M 67.5 72 L 68.5 74 L 67.5 72 Z " /><path fill="rgb(177,208,217)" stroke="rgb(177,208,217)" stroke-width="1" opacity="1" d="M 64.5 74 Q 68 76 63.5 78 L 64.5 74 Z " /><path fill="rgb(177,208,217)" stroke="rgb(177,208,217)" stroke-width="1" opacity="1" d="M 67 75 L 69 75.5 L 67 76.5 L 67 75 Z " /><path fill="rgb(177,208,217)" stroke="rgb(177,208,217)" stroke-width="1" opacity="1" d="M 120.5 88 Q 124.1 91.9 123 100.5 L 122 100.5 L 122 94.5 L 120.5 88 Z " /><path fill="rgb(177,208,217)" stroke="rgb(177,208,217)" stroke-width="1" opacity="1" d="M 58.5 91 L 59 93.5 L 57 94.5 L 58.5 91 Z " /><path fill="rgb(177,208,217)" stroke="rgb(177,208,217)" stroke-width="1" opacity="1" d="M 60.5 91 L 61 93.5 L 60 93.5 L 60.5 91 Z " /><path fill="rgb(177,208,217)" stroke="rgb(177,208,217)" stroke-width="1" opacity="1" d="M 128.5 92 L 132 94.5 L 131.5 98 L 128.5 92 Z " /><path fill="rgb(177,208,217)" stroke="rgb(177,208,217)" stroke-width="1" opacity="1" d="M 116.5 93 L 119 93.5 L 118 98.5 L 119 101.5 L 118 101.5 L 114 94.5 L 116 94.5 L 116.5 93 Z " /><path fill="rgb(177,208,217)" stroke="rgb(177,208,217)" stroke-width="1" opacity="1" d="M 192.5 93 L 191.5 95 L 189.5 96 L 190.5 94 L 192.5 93 Z " /><path fill="rgb(177,208,217)" stroke="rgb(177,208,217)" stroke-width="1" opacity="1" d="M 54.5 99 L 57 99.5 L 54.5 100 L 54.5 99 Z " /><path fill="rgb(177,208,217)" stroke="rgb(177,208,217)" stroke-width="1" opacity="1" d="M 31.5 102 L 32 103.5 L 29 113.5 L 31 113.5 Q 31.8 115.8 29.5 115 L 28 111.5 L 31.5 102 Z " /><path fill="rgb(177,208,217)" stroke="rgb(177,208,217)" stroke-width="1" opacity="1" d="M 56.5 102 L 55.5 104 L 56.5 102 Z " /><path fill="rgb(177,208,217)" stroke="rgb(177,208,217)" stroke-width="1" opacity="1" d="M 56.5 112 L 55.5 114 L 56.5 112 Z " /><path fill="rgb(177,208,217)" stroke="rgb(177,208,217)" stroke-width="1" opacity="1" d="M 28.5 116 L 29 117.5 L 27.5 120 L 27 117.5 L 28.5 116 Z " /><path fill="rgb(177,208,217)" stroke="rgb(177,208,217)" stroke-width="1" opacity="1" d="M 166.5 118 L 164.5 121 L 166.5 118 Z " /><path fill="rgb(177,208,217)" stroke="rgb(177,208,217)" stroke-width="1" opacity="1" d="M 36.5 121 L 38 123.5 L 37 123.5 L 36.5 121 Z " /><path fill="rgb(177,208,217)" stroke="rgb(177,208,217)" stroke-width="1" opacity="1" d="M 56.5 121 L 57 123 L 55 122.5 L 56.5 121 Z " /><path fill="rgb(177,208,217)" stroke="rgb(177,208,217)" stroke-width="1" opacity="1" d="M 53.5 122 L 52.5 124 L 51 123.5 L 53.5 122 Z " /><path fill="rgb(177,208,217)" stroke="rgb(177,208,217)" stroke-width="1" opacity="1" d="M 44.5 125 L 47 125.5 L 44.5 126 L 44.5 125 Z " /><path fill="rgb(177,208,217)" stroke="rgb(177,208,217)" stroke-width="1" opacity="1" d="M 163.5 125 L 162.5 127 L 163.5 125 Z " /><path fill="rgb(177,208,217)" stroke="rgb(177,208,217)" stroke-width="1" opacity="1" d="M 70.5 146 L 71 148 L 69 147.5 L 70.5 146 Z " /><path fill="rgb(177,208,217)" stroke="rgb(177,208,217)" stroke-width="1" opacity="1" d="M 81.5 151 Q 84.1 150.2 83 153.5 L 82 153.5 L 81.5 152 L 80 152.5 L 81.5 151 Z " /><path fill="rgb(177,208,217)" stroke="rgb(177,208,217)" stroke-width="1" opacity="1" d="M 105.5 156 L 108 157.5 L 106.5 160 L 102.5 161 L 102.5 160 L 106 158.5 L 105.5 156 Z " /><path fill="rgb(177,208,217)" stroke="rgb(177,208,217)" stroke-width="1" opacity="1" d="M 103.5 157 L 102.5 159 L 103.5 157 Z " /><path fill="rgb(177,208,217)" stroke="rgb(177,208,217)" stroke-width="1" opacity="1" d="M 96.5 158 Q 98.8 157.3 98 159.5 L 96 160.5 L 96.5 158 Z " /><path fill="rgb(177,208,217)" stroke="rgb(177,208,217)" stroke-width="1" opacity="1" d="M 88.5 163 Q 91.1 162.3 90 165 L 87 164.5 L 88.5 163 Z " /><path fill="rgb(154,194,207)" stroke="rgb(154,194,207)" stroke-width="1" opacity="1" d="M 110.5 12 L 111 13.5 L 109 14.5 L 110.5 12 Z " /><path fill="rgb(154,194,207)" stroke="rgb(154,194,207)" stroke-width="1" opacity="1" d="M 114.5 12 Q 124.1 24.9 130 41.5 L 127.5 42 L 125 40.5 Q 120.6 26.4 112 16.5 Q 116.3 14.2 114.5 12 Z " /><path fill="rgb(154,194,207)" stroke="rgb(154,194,207)" stroke-width="1" opacity="1" d="M 103.5 17 L 102.5 19 L 103.5 17 Z " /><path fill="rgb(154,194,207)" stroke="rgb(154,194,207)" stroke-width="1" opacity="1" d="M 100.5 23 L 102.5 26 Q 101 22.5 99.5 25 L 98 24.5 L 100.5 23 Z " /><path fill="rgb(154,194,207)" stroke="rgb(154,194,207)" stroke-width="1" opacity="1" d="M 109.5 23 L 110.5 25 L 109.5 23 Z " /><path fill="rgb(154,194,207)" stroke="rgb(154,194,207)" stroke-width="1" opacity="1" d="M 103.5 27 L 106.5 32 L 110 34.5 L 114 43 L 108 44 L 107.5 42 L 102 43 L 100.5 40 Q 98.8 42.8 97 38.5 L 98 36.5 L 96 36.5 Q 98 32.8 100 34.5 L 102 29 L 104 28.5 L 103.5 27 Z M 105 37 L 105 40 L 104 42 L 107 42 L 105 37 Z " /><path fill="rgb(154,194,207)" stroke="rgb(154,194,207)" stroke-width="1" opacity="1" d="M 91.5 34 L 93 35.5 Q 87.6 38.3 89.5 41 Q 86.3 39.3 90 37.5 L 91.5 34 Z " /><path fill="rgb(154,194,207)" stroke="rgb(154,194,207)" stroke-width="1" opacity="1" d="M 95.5 38 L 92.5 42 L 95.5 38 Z " /><path fill="rgb(154,194,207)" stroke="rgb(154,194,207)" stroke-width="1" opacity="1" d="M 118.5 41 L 119.5 43 L 118.5 41 Z " /><path fill="rgb(154,194,207)" stroke="rgb(154,194,207)" stroke-width="1" opacity="1" d="M 193.5 42 L 192.5 44 L 193.5 42 Z " /><path fill="rgb(154,194,207)" stroke="rgb(154,194,207)" stroke-width="1" opacity="1" d="M 192.5 45 L 195 45.5 L 193.5 48 L 191 46.5 L 192.5 45 Z " /><path fill="rgb(154,194,207)" stroke="rgb(154,194,207)" stroke-width="1" opacity="1" d="M 187.5 49 L 186.5 51 L 187.5 49 Z " /><path fill="rgb(154,194,207)" stroke="rgb(154,194,207)" stroke-width="1" opacity="1" d="M 193.5 49 L 196 49.5 L 193 51.5 L 193.5 49 Z " /><path fill="rgb(154,194,207)" stroke="rgb(154,194,207)" stroke-width="1" opacity="1" d="M 184.5 52 L 183.5 54 L 184.5 52 Z " /><path fill="rgb(154,194,207)" stroke="rgb(154,194,207)" stroke-width="1" opacity="1" d="M 73.5 59 L 74.5 61 L 73.5 59 Z " /><path fill="rgb(154,194,207)" stroke="rgb(154,194,207)" stroke-width="1" opacity="1" d="M 78.5 64 L 79.5 66 L 78.5 64 Z " /><path fill="rgb(154,194,207)" stroke="rgb(154,194,207)" stroke-width="1" opacity="1" d="M 183.5 65 L 184 67.5 L 183 67.5 L 183.5 65 Z " /><path fill="rgb(154,194,207)" stroke="rgb(154,194,207)" stroke-width="1" opacity="1" d="M 185.5 68 L 184.5 70 L 185.5 68 Z " /><path fill="rgb(154,194,207)" stroke="rgb(154,194,207)" stroke-width="1" opacity="1" d="M 70.5 71 L 69.5 73 L 70.5 71 Z " /><path fill="rgb(154,194,207)" stroke="rgb(154,194,207)" stroke-width="1" opacity="1" d="M 106.5 83 L 109 84.5 L 107.5 85 L 106.5 83 Z " /><path fill="rgb(154,194,207)" stroke="rgb(154,194,207)" stroke-width="1" opacity="1" d="M 110.5 84 L 111.5 86 L 110.5 84 Z " /><path fill="rgb(154,194,207)" stroke="rgb(154,194,207)" stroke-width="1" opacity="1" d="M 122.5 89 L 125 90 L 124 93.5 L 124.5 95 Q 120.7 93.7 122.5 89 Z " /><path fill="rgb(154,194,207)" stroke="rgb(154,194,207)" stroke-width="1" opacity="1" d="M 38.5 90 L 37.5 92 L 38.5 90 Z " /><path fill="rgb(154,194,207)" stroke="rgb(154,194,207)" stroke-width="1" opacity="1" d="M 111.5 90 L 119 102.5 L 117 102.5 Q 116.4 108.6 119 111.5 L 117 112.5 L 117 110.5 Q 118.1 107.2 115.5 108 L 111.5 114 L 105 118 Q 106.3 121 102.5 120 L 100 121 L 100 123 Q 96.3 121.5 97 124.5 Q 95.8 127.3 94.5 125 L 88.5 128 L 86.5 127 Q 85 130.5 83.5 128 L 78.5 130 L 76.5 130 L 73.5 131 L 69.5 129 L 65.5 130 L 60.5 128 L 58.5 129 L 50 124.5 L 50.5 123 L 52.5 124 L 61 120.5 L 60.5 119 L 63.5 120 L 70.5 116 L 70.5 117 L 69 117.5 L 69.5 119 Q 68.3 116.8 67 119.5 L 71.5 120 L 73.5 120 L 76.5 119 L 78.5 119 L 87.5 116 L 89.5 116 L 95 114 L 95.5 112 L 97 112.5 Q 96.3 110.3 98.5 111 L 105 105.5 L 107 102.5 Q 112.2 100.2 112 92.5 L 111.5 90 Z " /><path fill="rgb(154,194,207)" stroke="rgb(154,194,207)" stroke-width="1" opacity="1" d="M 57.5 92 L 59 94.5 L 57 93.5 L 57.5 92 Z " /><path fill="rgb(154,194,207)" stroke="rgb(154,194,207)" stroke-width="1" opacity="1" d="M 130.5 92 L 131.5 94 L 130.5 92 Z " /><path fill="rgb(154,194,207)" stroke="rgb(154,194,207)" stroke-width="1" opacity="1" d="M 51.5 93 L 50.5 95 L 51.5 93 Z " /><path fill="rgb(154,194,207)" stroke="rgb(154,194,207)" stroke-width="1" opacity="1" d="M 46.5 94 L 47.5 96 L 46.5 94 Z " /><path fill="rgb(154,194,207)" stroke="rgb(154,194,207)" stroke-width="1" opacity="1" d="M 35.5 95 L 36 96.5 L 34 101.5 L 36 101.5 Q 34.9 104.8 37.5 104 L 37.5 102 L 39 105.5 Q 38.3 107.8 40.5 107 L 42 110 L 46 111.5 Q 45.3 113.8 47.5 113 L 51 115.5 L 50.5 118 L 48 114 L 43.5 113 L 41 117.5 L 42 119.5 L 40 120.5 Q 40.7 117.5 37 119 L 36.5 121 L 35.5 119 L 37 118.5 L 34 116.5 L 35 114.5 L 32.5 114 L 30.5 113 L 28.5 116 L 28 114.5 L 29 111.5 L 28.5 110 L 30 110.5 L 32 101.5 L 31.5 100 Q 32.8 102.3 34 99.5 L 35.5 95 Z " /><path fill="rgb(154,194,207)" stroke="rgb(154,194,207)" stroke-width="1" opacity="1" d="M 123.5 96 L 124 99.5 L 123 99.5 L 123.5 96 Z " /><path fill="rgb(154,194,207)" stroke="rgb(154,194,207)" stroke-width="1" opacity="1" d="M 122.5 103 L 123 109.5 L 122 109.5 L 122.5 103 Z " /><path fill="rgb(154,194,207)" stroke="rgb(154,194,207)" stroke-width="1" opacity="1" d="M 52.5 111 L 52 112.5 L 51.5 114 L 51 112.5 L 52.5 111 Z " /><path fill="rgb(154,194,207)" stroke="rgb(154,194,207)" stroke-width="1" opacity="1" d="M 75.5 111 Q 79 113 74.5 115 L 75.5 111 Z " /><path fill="rgb(154,194,207)" stroke="rgb(154,194,207)" stroke-width="1" opacity="1" d="M 61.5 114 L 60.5 116 L 61.5 114 Z " /><path fill="rgb(154,194,207)" stroke="rgb(154,194,207)" stroke-width="1" opacity="1" d="M 165.5 116 L 167 116.5 L 163.5 119 L 165.5 116 Z " /><path fill="rgb(154,194,207)" stroke="rgb(154,194,207)" stroke-width="1" opacity="1" d="M 50.5 119 L 53 119.5 Q 50.9 122.8 50.5 119 Z " /><path fill="rgb(154,194,207)" stroke="rgb(154,194,207)" stroke-width="1" opacity="1" d="M 166.5 119 L 165.5 121 L 166.5 119 Z " /><path fill="rgb(154,194,207)" stroke="rgb(154,194,207)" stroke-width="1" opacity="1" d="M 26.5 121 L 27 123.5 L 26 123.5 L 26.5 121 Z " /><path fill="rgb(154,194,207)" stroke="rgb(154,194,207)" stroke-width="1" opacity="1" d="M 38 122 L 40 122.5 L 38 123.5 L 38 122 Z " /><path fill="rgb(154,194,207)" stroke="rgb(154,194,207)" stroke-width="1" opacity="1" d="M 30.5 124 L 33 124.5 L 30.5 125 L 30.5 124 Z " /><path fill="rgb(154,194,207)" stroke="rgb(154,194,207)" stroke-width="1" opacity="1" d="M 43.5 125 L 44 127 L 38 126.5 L 43.5 125 Z " /><path fill="rgb(154,194,207)" stroke="rgb(154,194,207)" stroke-width="1" opacity="1" d="M 159.5 126 L 162 127.5 L 160.5 127 L 159.5 126 Z " /><path fill="rgb(154,194,207)" stroke="rgb(154,194,207)" stroke-width="1" opacity="1" d="M 81.5 133 L 82.5 135 L 81.5 133 Z " /><path fill="rgb(154,194,207)" stroke="rgb(154,194,207)" stroke-width="1" opacity="1" d="M 104.5 156 L 105.5 158 L 104 158.5 L 104.5 160 L 102.5 160 L 101 159.5 L 104 157.5 L 104.5 156 Z " /><path fill="rgb(154,194,207)" stroke="rgb(154,194,207)" stroke-width="1" opacity="1" d="M 95.5 158 L 96.5 160 L 95.5 158 Z " /><path fill="rgb(91,151,170)" stroke="rgb(91,151,170)" stroke-width="1" opacity="1" d="M 118.5 6 L 120 6.5 L 117.5 8 L 118.5 6 Z " /><path fill="rgb(91,151,170)" stroke="rgb(91,151,170)" stroke-width="1" opacity="1" d="M 115.5 8 L 114.5 10 L 115.5 8 Z " /><path fill="rgb(91,151,170)" stroke="rgb(91,151,170)" stroke-width="1" opacity="1" d="M 115.5 11 L 116.5 13 L 117.5 11 L 119.5 14 L 120.5 11 L 124 20.5 L 123 23 L 125 23.5 L 124.5 25 L 126 25.5 L 125.5 27 L 127 27.5 L 127 29.5 L 128.5 33 L 130 32.5 L 130 34.5 L 132.5 38 L 134 37.5 L 133.5 39 L 136 40.5 L 131.5 42 L 119 18.5 L 119.5 17 L 117 15.5 L 118 13.5 L 115 12.5 L 115.5 11 Z " /><path fill="rgb(91,151,170)" stroke="rgb(91,151,170)" stroke-width="1" opacity="1" d="M 108.5 14 L 105.5 18 Q 102.5 16.5 105.5 15 Q 107 17.5 108.5 14 Z " /><path fill="rgb(91,151,170)" stroke="rgb(91,151,170)" stroke-width="1" opacity="1" d="M 110.5 17 L 113 18.5 L 119 29.5 L 118 29.5 L 111.5 20 L 109.5 19 L 109 20.5 L 112 24.5 L 110 23.5 L 107 19.5 L 110.5 17 Z " /><path fill="rgb(91,151,170)" stroke="rgb(91,151,170)" stroke-width="1" opacity="1" d="M 124.5 42 L 127 42.5 L 124.5 43 L 124.5 42 Z " /><path fill="rgb(91,151,170)" stroke="rgb(91,151,170)" stroke-width="1" opacity="1" d="M 67.5 67 L 70 67.5 Q 67.9 70.8 67.5 67 Z " /><path fill="rgb(91,151,170)" stroke="rgb(91,151,170)" stroke-width="1" opacity="1" d="M 65.5 68 L 66.5 70 L 65.5 68 Z " /><path fill="rgb(91,151,170)" stroke="rgb(91,151,170)" stroke-width="1" opacity="1" d="M 65.5 74 L 64.5 76 L 65.5 74 Z " /><path fill="rgb(91,151,170)" stroke="rgb(91,151,170)" stroke-width="1" opacity="1" d="M 64.5 77 L 68 78.5 L 66.5 78 L 63.5 79 L 64.5 77 Z " /><path fill="rgb(91,151,170)" stroke="rgb(91,151,170)" stroke-width="1" opacity="1" d="M 49.5 93 L 48.5 95 L 49.5 93 Z " /><path fill="rgb(91,151,170)" stroke="rgb(91,151,170)" stroke-width="1" opacity="1" d="M 136.5 95 L 143 99.5 Q 135.9 119.9 120.5 132 L 113 136 L 112.5 138 L 111.5 137 L 108.5 140 L 104.5 143 L 102.5 142 L 98.5 145 L 96.5 145 L 93.5 147 L 91 146 L 90.5 144 L 89 144.5 L 90 142 Q 87 143.3 88 139.5 L 86 134.5 L 87 134.5 L 88.5 137 L 94 135.5 L 93.5 134 L 96.5 134 L 103.5 130 Q 104.8 132.3 106 129.5 Q 105.3 127.3 107.5 128 L 110 127 L 111.5 124 L 113.5 124 L 115 123.5 L 114.5 122 Q 117.8 123.1 117 120.5 L 118 118 L 122 116.5 L 121 114.5 L 125 112.5 Q 123.9 109.2 126.5 110 L 127.5 107 Q 130.5 107.7 129 104 L 131 104 Q 128.9 109.2 133.5 108 L 136 104.5 L 136.5 95 Z " /><path fill="rgb(91,151,170)" stroke="rgb(91,151,170)" stroke-width="1" opacity="1" d="M 134.5 96 L 135 101.5 L 134 101.5 L 134.5 96 Z " /><path fill="rgb(91,151,170)" stroke="rgb(91,151,170)" stroke-width="1" opacity="1" d="M 119.5 103 L 120 104.5 L 118 105.5 L 119.5 103 Z " /><path fill="rgb(91,151,170)" stroke="rgb(91,151,170)" stroke-width="1" opacity="1" d="M 45.5 114 L 49 117.5 L 48.5 120 L 45.5 114 Z " /><path fill="rgb(91,151,170)" stroke="rgb(91,151,170)" stroke-width="1" opacity="1" d="M 59.5 114 L 58.5 116 L 59.5 114 Z " /><path fill="rgb(91,151,170)" stroke="rgb(91,151,170)" stroke-width="1" opacity="1" d="M 163.5 117 L 166 118.5 L 164 119.5 L 163.5 117 Z " /><path fill="rgb(91,151,170)" stroke="rgb(91,151,170)" stroke-width="1" opacity="1" d="M 26.5 119 L 27.5 121 L 26.5 119 Z " /><path fill="rgb(91,151,170)" stroke="rgb(91,151,170)" stroke-width="1" opacity="1" d="M 162.5 120 L 163.5 122 L 162.5 120 Z " /><path fill="rgb(91,151,170)" stroke="rgb(91,151,170)" stroke-width="1" opacity="1" d="M 41.5 121 L 42 122.5 L 40 123.5 L 41.5 121 Z " /><path fill="rgb(91,151,170)" stroke="rgb(91,151,170)" stroke-width="1" opacity="1" d="M 159.5 125 L 162 125.5 L 159.5 126 L 159.5 125 Z " /><path fill="rgb(91,151,170)" stroke="rgb(91,151,170)" stroke-width="1" opacity="1" d="M 17.5 126 L 25.5 128 L 38 128.5 Q 35.8 129.8 38.5 131 L 40.5 131 L 44.5 133 L 46 132.5 Q 45.3 134.8 47.5 134 L 50 135.5 L 50.5 134 L 51 136 Q 56.1 134.8 57.5 138 L 66.5 135 L 66.5 136 L 58 139 L 59 142.5 L 58.5 144 L 60 144.5 L 59 147.5 L 59.5 149 L 52.5 146 L 50.5 146 L 48.5 145 Q 47 147.5 45.5 144 L 42.5 144 L 26 135 Q 27.1 132.3 24.5 133 L 20.5 130 L 20 131.5 L 23 136.5 L 21 135.5 L 17.5 126 Z " /><path fill="rgb(91,151,170)" stroke="rgb(91,151,170)" stroke-width="1" opacity="1" d="M 34.5 126 L 37 126.5 L 34.5 127 L 34.5 126 Z " /><path fill="rgb(91,151,170)" stroke="rgb(91,151,170)" stroke-width="1" opacity="1" d="M 157.5 126 L 158.5 128 L 157.5 126 Z " /><path fill="rgb(91,151,170)" stroke="rgb(91,151,170)" stroke-width="1" opacity="1" d="M 81.5 134 L 86 142.5 L 85 145 L 87 145.5 L 82.5 147 L 80.5 144 L 80 146 L 77 144.5 L 78 138.5 L 79.5 137 L 80 139 Q 83.3 140.3 82 135.5 L 81.5 134 Z " /><path fill="rgb(91,151,170)" stroke="rgb(91,151,170)" stroke-width="1" opacity="1" d="M 77.5 135 L 80 135.5 L 75 138.5 L 74.5 146 L 71.5 142 L 67 141 Q 68.1 143.7 65.5 143 L 62.5 144 L 63 142.5 Q 61.8 138.8 65.5 140 L 77.5 135 Z M 70 139 L 70 140 L 73 140 L 70 139 Z " /><path fill="rgb(91,151,170)" stroke="rgb(91,151,170)" stroke-width="1" opacity="1" d="M 65.5 147 L 66.5 149 L 64 148.5 L 65.5 147 Z " /><path fill="rgb(91,151,170)" stroke="rgb(91,151,170)" stroke-width="1" opacity="1" d="M 84.5 147 L 83.5 149 L 82 148.5 L 84.5 147 Z " /><path fill="rgb(91,151,170)" stroke="rgb(91,151,170)" stroke-width="1" opacity="1" d="M 87.5 147 L 86.5 149 L 87.5 147 Z " /><path fill="rgb(91,151,170)" stroke="rgb(91,151,170)" stroke-width="1" opacity="1" d="M 68.5 148 L 69.5 150 L 68.5 148 Z " /><path fill="rgb(91,151,170)" stroke="rgb(91,151,170)" stroke-width="1" opacity="1" d="M 73.5 151 L 74 153.5 L 73 153.5 L 73.5 151 Z " /><path fill="rgb(91,151,170)" stroke="rgb(91,151,170)" stroke-width="1" opacity="1" d="M 83.5 151 L 86 151.5 L 83.5 152 L 83.5 151 Z " /><path fill="rgb(91,151,170)" stroke="rgb(91,151,170)" stroke-width="1" opacity="1" d="M 101.5 160 L 104 161.5 L 102.5 162 L 101.5 160 Z " /><path fill="rgb(32,59,68)" stroke="rgb(32,59,68)" stroke-width="1" opacity="1" d="M 183.5 52 L 182.5 54 L 183.5 52 Z " /><path fill="rgb(32,59,68)" stroke="rgb(32,59,68)" stroke-width="1" opacity="1" d="M 159.5 55 L 161 59.5 L 159 58.5 L 159.5 55 Z " /><path fill="rgb(32,59,68)" stroke="rgb(32,59,68)" stroke-width="1" opacity="1" d="M 166.5 56 L 169 57.5 Q 169.8 59.8 167.5 59 L 167.5 57 L 166.5 56 Z " /><path fill="rgb(32,59,68)" stroke="rgb(32,59,68)" stroke-width="1" opacity="1" d="M 168.5 60 Q 170.8 59.3 170 61.5 L 172 64.5 L 170 63.5 L 168.5 60 Z " /><path fill="rgb(32,59,68)" stroke="rgb(32,59,68)" stroke-width="1" opacity="1" d="M 180.5 65 L 179.5 67 L 180.5 65 Z " /><path fill="rgb(32,59,68)" stroke="rgb(32,59,68)" stroke-width="1" opacity="1" d="M 165.5 67 L 166.5 69 L 165.5 67 Z " /><path fill="rgb(32,59,68)" stroke="rgb(32,59,68)" stroke-width="1" opacity="1" d="M 174.5 70 L 180.5 80 Q 183.8 81.1 183 78.5 L 184.5 75 L 185 77.5 L 183 82.5 L 184 85.5 L 182.5 88 L 184 88.5 L 181 94.5 L 182.5 97 L 184 96.5 L 180 98.5 L 180.5 100 L 182 99.5 Q 178.9 101.2 180.5 103 L 177.5 102 L 176 103.5 L 175 105.5 L 175.5 107 Q 174.2 104.8 173 107.5 L 174 109.5 L 171 110.5 L 170 112.5 Q 172.3 113.7 169.5 115 L 167.5 116 L 167 114 L 162 116 L 161 118.5 L 161 120.5 Q 162.1 123.8 159.5 123 L 157.5 125 L 155 124.5 L 155.5 123 Q 153.3 122.3 154 124.5 L 154 126.5 L 156 129.5 L 157.5 129 L 164.5 136 L 167 137.5 L 165.5 138 L 163 136.5 L 163 139.5 L 153.5 150 L 152 150.5 L 152.5 152 L 150.5 151 L 150 152.5 L 150.5 154 L 148 153 L 147 159 L 129 156.5 L 129.5 155 L 126.5 156 L 126.5 154 L 123 152.5 L 127 151 L 127 149 L 129 149 Q 127.9 146.3 130.5 147 L 134 145 Q 132.9 142.3 135.5 143 L 138 139 L 141 137.5 L 142.5 135 L 145 134.5 L 144 132 L 149 128.5 L 150.5 125 L 152 124.5 L 151 122 Q 153.7 123.1 153 120.5 L 154 117 L 157 115.5 L 156 113.5 L 157 113.5 L 158.5 116 L 171 101.5 Q 173.9 96.9 173 88.5 L 172 86 Q 175 87.3 174 83.5 L 173 83.5 L 172.5 85 L 172 83.5 L 173 81.5 L 172.5 79 Q 169.5 79.9 171 75.5 L 172 75.5 Q 170.9 78.8 173.5 78 L 174.5 75 L 176 75.5 L 175.5 73 L 174 73.5 L 175 71.5 L 174.5 70 Z " /><path fill="rgb(32,59,68)" stroke="rgb(32,59,68)" stroke-width="1" opacity="1" d="M 47.5 73 L 46.5 75 L 47.5 73 Z " /><path fill="rgb(32,59,68)" stroke="rgb(32,59,68)" stroke-width="1" opacity="1" d="M 60.5 73 L 59.5 75 L 60.5 73 Z " /><path fill="rgb(32,59,68)" stroke="rgb(32,59,68)" stroke-width="1" opacity="1" d="M 44.5 76 L 43.5 78 L 44.5 76 Z " /><path fill="rgb(32,59,68)" stroke="rgb(32,59,68)" stroke-width="1" opacity="1" d="M 169.5 76 L 168.5 78 L 169.5 76 Z " /><path fill="rgb(32,59,68)" stroke="rgb(32,59,68)" stroke-width="1" opacity="1" d="M 33.5 91 L 34.5 93 L 33.5 91 Z " /><path fill="rgb(32,59,68)" stroke="rgb(32,59,68)" stroke-width="1" opacity="1" d="M 198.5 98 L 199 100 L 197 99.5 L 198.5 98 Z " /><path fill="rgb(32,59,68)" stroke="rgb(32,59,68)" stroke-width="1" opacity="1" d="M 26.5 144 L 27.5 146 L 26.5 144 Z " /><path fill="rgb(32,59,68)" stroke="rgb(32,59,68)" stroke-width="1" opacity="1" d="M 31.5 153 L 32.5 155 L 31.5 153 Z " /><path fill="rgb(32,59,68)" stroke="rgb(32,59,68)" stroke-width="1" opacity="1" d="M 105.5 154 L 108 155.5 L 106.5 155 L 105.5 154 Z " /><path fill="rgb(32,59,68)" stroke="rgb(32,59,68)" stroke-width="1" opacity="1" d="M 103.5 155 L 102.5 157 L 103.5 155 Z " /><path fill="rgb(32,59,68)" stroke="rgb(32,59,68)" stroke-width="1" opacity="1" d="M 69.5 158 L 70.5 160 Q 67.7 160.7 69.5 158 Z " /><path fill="rgb(32,59,68)" stroke="rgb(32,59,68)" stroke-width="1" opacity="1" d="M 100.5 158 L 101 160.5 L 99 159.5 L 100.5 158 Z " /><path fill="rgb(32,59,68)" stroke="rgb(32,59,68)" stroke-width="1" opacity="1" d="M 93.5 159 L 94 161 L 96.5 162 L 98.5 161 L 98.5 162 L 95.5 163 Q 91.9 161.9 93.5 159 Z " /><path fill="rgb(32,59,68)" stroke="rgb(32,59,68)" stroke-width="1" opacity="1" d="M 78.5 160 L 81 160.5 L 71.5 164 L 72.5 162 L 78.5 160 Z " /><path fill="rgb(32,59,68)" stroke="rgb(32,59,68)" stroke-width="1" opacity="1" d="M 87.5 161 L 89 161.5 L 86 163.5 L 85.5 165 L 85 163.5 L 87.5 161 Z " /><path fill="rgb(32,59,68)" stroke="rgb(32,59,68)" stroke-width="1" opacity="1" d="M 90.5 161 L 93 162.5 L 92.5 164 L 92 162 L 90.5 161 Z " /><path fill="rgb(32,59,68)" stroke="rgb(32,59,68)" stroke-width="1" opacity="1" d="M 69.5 170 L 72 170.5 L 69.5 171 L 69.5 170 Z " /><path fill="rgb(32,59,68)" stroke="rgb(32,59,68)" stroke-width="1" opacity="1" d="M 81.5 170 L 84 170.5 L 81.5 171 L 81.5 170 Z " /><path fill="rgb(19,46,54)" stroke="rgb(19,46,54)" stroke-width="1" opacity="1" d="M 139.5 27 L 140 29.5 L 139 29.5 L 139.5 27 Z " /><path fill="rgb(19,46,54)" stroke="rgb(19,46,54)" stroke-width="1" opacity="1" d="M 133.5 33 L 134.5 35 L 133.5 33 Z " /><path fill="rgb(19,46,54)" stroke="rgb(19,46,54)" stroke-width="1" opacity="1" d="M 194.5 35 L 193.5 37 L 194.5 35 Z " /><path fill="rgb(19,46,54)" stroke="rgb(19,46,54)" stroke-width="1" opacity="1" d="M 133.5 36 L 134.5 38 L 133.5 36 Z " /><path fill="rgb(19,46,54)" stroke="rgb(19,46,54)" stroke-width="1" opacity="1" d="M 196.5 37 L 198 37.5 L 195.5 39 L 196.5 37 Z " /><path fill="rgb(19,46,54)" stroke="rgb(19,46,54)" stroke-width="1" opacity="1" d="M 191.5 38 L 190.5 40 L 191.5 38 Z " /><path fill="rgb(19,46,54)" stroke="rgb(19,46,54)" stroke-width="1" opacity="1" d="M 157.5 44 L 158 48.5 L 157 48.5 L 157.5 44 Z " /><path fill="rgb(19,46,54)" stroke="rgb(19,46,54)" stroke-width="1" opacity="1" d="M 191.5 52 L 194 55.5 L 192 54.5 L 191.5 53 L 190 53.5 L 191.5 52 Z " /><path fill="rgb(19,46,54)" stroke="rgb(19,46,54)" stroke-width="1" opacity="1" d="M 158.5 54 L 159 56.5 L 158 56.5 L 158.5 54 Z " /><path fill="rgb(19,46,54)" stroke="rgb(19,46,54)" stroke-width="1" opacity="1" d="M 165.5 56 L 166.5 58 L 165.5 56 Z " /><path fill="rgb(19,46,54)" stroke="rgb(19,46,54)" stroke-width="1" opacity="1" d="M 161.5 60 L 163 62.5 L 162 62.5 L 161.5 60 Z " /><path fill="rgb(19,46,54)" stroke="rgb(19,46,54)" stroke-width="1" opacity="1" d="M 186.5 61 L 188.5 62 L 190 61.5 L 189 63.5 L 190 65.5 L 188.5 68 L 186 67.5 L 187 63.5 L 185 63.5 L 186.5 61 Z " /><path fill="rgb(19,46,54)" stroke="rgb(19,46,54)" stroke-width="1" opacity="1" d="M 192.5 63 L 193.5 65 L 192.5 63 Z " /><path fill="rgb(19,46,54)" stroke="rgb(19,46,54)" stroke-width="1" opacity="1" d="M 173.5 67 L 175 67.5 L 174.5 72 L 173.5 69 L 172 68.5 L 173.5 67 Z " /><path fill="rgb(19,46,54)" stroke="rgb(19,46,54)" stroke-width="1" opacity="1" d="M 165.5 69 L 168 69.5 Q 165.9 72.8 165.5 69 Z " /><path fill="rgb(19,46,54)" stroke="rgb(19,46,54)" stroke-width="1" opacity="1" d="M 169.5 71 L 171 73.5 L 168 74 L 169.5 71 Z " /><path fill="rgb(19,46,54)" stroke="rgb(19,46,54)" stroke-width="1" opacity="1" d="M 189.5 71 L 189 72.5 L 192 78.5 L 190 78.5 L 190 85.5 L 188 92.5 L 188.5 94 L 187.5 93 L 184.5 96 L 183 96.5 Q 185.3 97.7 182.5 99 L 178 102.5 L 169.5 114 L 171 111.5 L 181 97.5 L 180.5 96 L 182 96.5 L 181 94.5 L 184 88.5 L 182 88 L 181.5 90 L 181 88.5 L 184 85.5 L 183 82.5 L 182 78.5 L 183 78.5 L 183.5 80 L 186 74.5 L 185.5 73 L 189.5 71 Z " /><path fill="rgb(19,46,54)" stroke="rgb(19,46,54)" stroke-width="1" opacity="1" d="M 196.5 71 L 197.5 73 L 196.5 71 Z " /><path fill="rgb(19,46,54)" stroke="rgb(19,46,54)" stroke-width="1" opacity="1" d="M 175.5 73 L 176 75.5 L 173 77.5 L 175.5 73 Z " /><path fill="rgb(19,46,54)" stroke="rgb(19,46,54)" stroke-width="1" opacity="1" d="M 179.5 78 Q 181.8 77.3 181 79.5 L 179.5 78 Z " /><path fill="rgb(19,46,54)" stroke="rgb(19,46,54)" stroke-width="1" opacity="1" d="M 172.5 82 L 174 86 L 171 85.5 L 173 85 L 172.5 82 Z " /><path fill="rgb(19,46,54)" stroke="rgb(19,46,54)" stroke-width="1" opacity="1" d="M 57.5 88 L 58.5 90 L 57.5 88 Z " /><path fill="rgb(19,46,54)" stroke="rgb(19,46,54)" stroke-width="1" opacity="1" d="M 172.5 88 L 173 90.5 L 172 90.5 L 172.5 88 Z " /><path fill="rgb(19,46,54)" stroke="rgb(19,46,54)" stroke-width="1" opacity="1" d="M 172.5 92 L 173 95.5 L 172 95.5 L 172.5 92 Z " /><path fill="rgb(19,46,54)" stroke="rgb(19,46,54)" stroke-width="1" opacity="1" d="M 133.5 93 L 134 94.5 L 132.5 97 L 132 95.5 L 133.5 93 Z " /><path fill="rgb(19,46,54)" stroke="rgb(19,46,54)" stroke-width="1" opacity="1" d="M 195.5 93 L 198.5 97 L 195.5 93 Z " /><path fill="rgb(19,46,54)" stroke="rgb(19,46,54)" stroke-width="1" opacity="1" d="M 46.5 97 L 47.5 99 L 46.5 97 Z " /><path fill="rgb(19,46,54)" stroke="rgb(19,46,54)" stroke-width="1" opacity="1" d="M 86.5 99 L 85.5 101 L 86.5 99 Z " /><path fill="rgb(19,46,54)" stroke="rgb(19,46,54)" stroke-width="1" opacity="1" d="M 166.5 107 L 164.5 110 L 166.5 107 Z " /><path fill="rgb(19,46,54)" stroke="rgb(19,46,54)" stroke-width="1" opacity="1" d="M 160.5 113 L 158.5 116 L 157.5 114 Q 159 116.5 160.5 113 Z " /><path fill="rgb(19,46,54)" stroke="rgb(19,46,54)" stroke-width="1" opacity="1" d="M 162 116 L 164 116.5 L 161 118.5 L 162 116 Z " /><path fill="rgb(19,46,54)" stroke="rgb(19,46,54)" stroke-width="1" opacity="1" d="M 167.5 122 L 166.5 124 L 167.5 122 Z " /><path fill="rgb(19,46,54)" stroke="rgb(19,46,54)" stroke-width="1" opacity="1" d="M 36.5 123 L 39 124.5 L 37.5 125 L 36.5 123 Z " /><path fill="rgb(19,46,54)" stroke="rgb(19,46,54)" stroke-width="1" opacity="1" d="M 163.5 134 L 165.5 138 Q 171.3 137.3 172 141.5 L 170.5 141 L 167 142 L 162.5 150 L 147.5 159 L 147 157.5 L 148 153 Q 150.7 154.1 150 151.5 L 151.5 152 L 153 151.5 L 152.5 150 L 155 148.5 L 161 141.5 L 160.5 140 Q 161.7 142.3 163 139.5 L 164 135.5 L 163.5 134 Z " /><path fill="rgb(19,46,54)" stroke="rgb(19,46,54)" stroke-width="1" opacity="1" d="M 35.5 153 L 36.5 155 L 35.5 153 Z " /><path fill="rgb(19,46,54)" stroke="rgb(19,46,54)" stroke-width="1" opacity="1" d="M 146.5 155 L 145.5 157 L 146.5 155 Z " /><path fill="rgb(19,46,54)" stroke="rgb(19,46,54)" stroke-width="1" opacity="1" d="M 138.5 158 L 141 158.5 L 138.5 159 L 138.5 158 Z " /><path fill="rgb(19,46,54)" stroke="rgb(19,46,54)" stroke-width="1" opacity="1" d="M 36.5 175 L 37 179.5 L 36 179.5 L 36.5 175 Z " /><path fill="rgb(43,82,94)" stroke="rgb(43,82,94)" stroke-width="1" opacity="1" d="M 138.5 6 L 139 11.5 L 138 11.5 L 138.5 6 Z " /><path fill="rgb(43,82,94)" stroke="rgb(43,82,94)" stroke-width="1" opacity="1" d="M 109.5 11 L 107.5 14 L 109.5 11 Z " /><path fill="rgb(43,82,94)" stroke="rgb(43,82,94)" stroke-width="1" opacity="1" d="M 135.5 35 L 137.5 38 L 135.5 35 Z " /><path fill="rgb(43,82,94)" stroke="rgb(43,82,94)" stroke-width="1" opacity="1" d="M 184.5 47 L 185.5 49 L 184.5 47 Z " /><path fill="rgb(43,82,94)" stroke="rgb(43,82,94)" stroke-width="1" opacity="1" d="M 194.5 53 L 197 54.5 L 195.5 55 L 194.5 53 Z " /><path fill="rgb(43,82,94)" stroke="rgb(43,82,94)" stroke-width="1" opacity="1" d="M 68.5 58 L 69.5 60 L 68.5 58 Z " /><path fill="rgb(43,82,94)" stroke="rgb(43,82,94)" stroke-width="1" opacity="1" d="M 169.5 58 L 168.5 60 L 169.5 58 Z " /><path fill="rgb(43,82,94)" stroke="rgb(43,82,94)" stroke-width="1" opacity="1" d="M 178.5 58 L 179.5 60 L 178.5 58 Z " /><path fill="rgb(43,82,94)" stroke="rgb(43,82,94)" stroke-width="1" opacity="1" d="M 161.5 59 L 160.5 61 L 161.5 59 Z " /><path fill="rgb(43,82,94)" stroke="rgb(43,82,94)" stroke-width="1" opacity="1" d="M 161.5 62 L 164 62.5 L 164 64.5 L 168 70.5 L 165.5 69 Q 163.3 69.8 164 67.5 L 161.5 62 Z " /><path fill="rgb(43,82,94)" stroke="rgb(43,82,94)" stroke-width="1" opacity="1" d="M 190.5 62 L 191.5 64 L 190.5 62 Z " /><path fill="rgb(43,82,94)" stroke="rgb(43,82,94)" stroke-width="1" opacity="1" d="M 58.5 64 L 59.5 66 L 58.5 64 Z " /><path fill="rgb(43,82,94)" stroke="rgb(43,82,94)" stroke-width="1" opacity="1" d="M 49.5 71 Q 52.5 72.5 49.5 74 Q 46.5 72.5 49.5 71 Z " /><path fill="rgb(43,82,94)" stroke="rgb(43,82,94)" stroke-width="1" opacity="1" d="M 167.5 72 L 166.5 74 L 167.5 72 Z " /><path fill="rgb(43,82,94)" stroke="rgb(43,82,94)" stroke-width="1" opacity="1" d="M 180.5 77 L 183 77.5 Q 180.9 80.8 180.5 77 Z " /><path fill="rgb(43,82,94)" stroke="rgb(43,82,94)" stroke-width="1" opacity="1" d="M 42.5 78 L 43.5 80 L 41 79.5 L 42.5 78 Z " /><path fill="rgb(43,82,94)" stroke="rgb(43,82,94)" stroke-width="1" opacity="1" d="M 57.5 84 L 58.5 86 L 57.5 84 Z " /><path fill="rgb(43,82,94)" stroke="rgb(43,82,94)" stroke-width="1" opacity="1" d="M 57.5 97 L 56.5 99 L 57.5 97 Z " /><path fill="rgb(43,82,94)" stroke="rgb(43,82,94)" stroke-width="1" opacity="1" d="M 132.5 98 L 133 103.5 L 132 103.5 L 132.5 98 Z " /><path fill="rgb(43,82,94)" stroke="rgb(43,82,94)" stroke-width="1" opacity="1" d="M 121.5 99 L 122 101.5 L 121 101.5 L 121.5 99 Z " /><path fill="rgb(43,82,94)" stroke="rgb(43,82,94)" stroke-width="1" opacity="1" d="M 29.5 100 L 30.5 102 L 29.5 100 Z " /><path fill="rgb(43,82,94)" stroke="rgb(43,82,94)" stroke-width="1" opacity="1" d="M 55.5 100 L 59 101.5 L 57.5 101 Q 54.5 101.5 55.5 100 Z " /><path fill="rgb(43,82,94)" stroke="rgb(43,82,94)" stroke-width="1" opacity="1" d="M 147.5 102 Q 154.4 106.6 157 115.5 L 154 117 L 153 122 Q 150.3 120.9 151 123.5 L 151.5 125 L 149 126.5 Q 149.5 131.5 145.5 132 Q 143.3 131.3 144 133.5 L 144.5 135 L 141 136.5 L 139.5 139 Q 137.3 138.3 138 140.5 L 134 143 Q 135.1 145.7 132.5 145 L 129 147 L 127 151 L 124.5 151 L 123.5 153 L 130 155.5 L 127.5 156 L 118.5 153 Q 120.2 155 116.5 157 L 116.5 155 L 110 157 L 108 160.5 L 108.5 162 Q 107 159.5 105.5 163 L 103.5 164 L 98 160.5 L 99.5 161 L 104.5 162 L 109 158.5 L 106.5 154 Q 104.3 153.3 105 155.5 L 102 156.5 Q 102.8 158.8 100.5 158 L 99 158.5 Q 99.9 155.5 95.5 157 L 96.5 155 L 114 148 Q 112.8 145 116.5 146 L 125 141 L 125 139 L 128 139 Q 126.5 135.3 129.5 136 L 137 127 Q 139.7 128.1 139 125.5 Q 144 122 145 116 L 147 115.5 Q 144.5 114 148 112.5 L 149 110.5 L 148.5 109 Q 150.8 109.8 150 107.5 L 151 106.5 L 147.5 102 Z " /><path fill="rgb(43,82,94)" stroke="rgb(43,82,94)" stroke-width="1" opacity="1" d="M 121.5 104 L 122 106.5 L 121 106.5 L 121.5 104 Z " /><path fill="rgb(43,82,94)" stroke="rgb(43,82,94)" stroke-width="1" opacity="1" d="M 177.5 104 L 178.5 106 L 176 105.5 L 177.5 104 Z " /><path fill="rgb(43,82,94)" stroke="rgb(43,82,94)" stroke-width="1" opacity="1" d="M 61.5 106 L 64 106.5 L 61.5 107 L 61.5 106 Z " /><path fill="rgb(43,82,94)" stroke="rgb(43,82,94)" stroke-width="1" opacity="1" d="M 175.5 107 L 174.5 109 L 175.5 107 Z " /><path fill="rgb(43,82,94)" stroke="rgb(43,82,94)" stroke-width="1" opacity="1" d="M 73.5 108 L 74.5 110 Q 71.7 110.7 73.5 108 Z " /><path fill="rgb(43,82,94)" stroke="rgb(43,82,94)" stroke-width="1" opacity="1" d="M 172.5 111 L 171.5 113 L 172.5 111 Z " /><path fill="rgb(43,82,94)" stroke="rgb(43,82,94)" stroke-width="1" opacity="1" d="M 67.5 112 L 69.5 115 L 67.5 112 Z " /><path fill="rgb(43,82,94)" stroke="rgb(43,82,94)" stroke-width="1" opacity="1" d="M 44.5 114 L 43.5 116 L 44.5 114 Z " /><path fill="rgb(43,82,94)" stroke="rgb(43,82,94)" stroke-width="1" opacity="1" d="M 66.5 114 L 67.5 116 L 66.5 114 Z " /><path fill="rgb(43,82,94)" stroke="rgb(43,82,94)" stroke-width="1" opacity="1" d="M 168.5 116 L 170 119.5 L 167 120.5 L 164.5 124 L 158.5 125 L 159.5 123 L 161.5 124 L 162.5 121 L 166 122 L 168.5 116 Z " /><path fill="rgb(43,82,94)" stroke="rgb(43,82,94)" stroke-width="1" opacity="1" d="M 173.5 119 L 172.5 121 L 173.5 119 Z " /><path fill="rgb(43,82,94)" stroke="rgb(43,82,94)" stroke-width="1" opacity="1" d="M 17.5 120 L 18.5 122 L 17.5 120 Z " /><path fill="rgb(43,82,94)" stroke="rgb(43,82,94)" stroke-width="1" opacity="1" d="M 47.5 122 L 48.5 124 L 47.5 122 Z " /><path fill="rgb(43,82,94)" stroke="rgb(43,82,94)" stroke-width="1" opacity="1" d="M 43.5 123 L 44.5 125 L 43.5 123 Z " /><path fill="rgb(43,82,94)" stroke="rgb(43,82,94)" stroke-width="1" opacity="1" d="M 154.5 123 L 157 124.5 L 155.5 124 L 154.5 123 Z " /><path fill="rgb(43,82,94)" stroke="rgb(43,82,94)" stroke-width="1" opacity="1" d="M 153.5 125 L 157 129.5 L 156 129.5 L 154 126.5 L 153.5 125 Z " /><path fill="rgb(43,82,94)" stroke="rgb(43,82,94)" stroke-width="1" opacity="1" d="M 21.5 126 L 25 126.5 L 21.5 127 L 21.5 126 Z " /><path fill="rgb(43,82,94)" stroke="rgb(43,82,94)" stroke-width="1" opacity="1" d="M 28.5 146 L 32.5 150 L 34.5 150 L 38.5 153 Q 48.5 154 55.5 158 L 57.5 157 L 63.5 159 L 65.5 158 L 65.5 159 L 64 159.5 L 67 160.5 L 66 163 L 69 163.5 L 68.5 165 L 72 163.5 L 71.5 162 L 74.5 163 L 74.5 161 L 77.5 162 L 77.5 160 L 81 161 L 81.5 159 L 83.5 159 L 87.5 157 L 89.5 158 L 89.5 156 L 92.5 158 L 92.5 156 L 94 158.5 L 93 160.5 L 95 164 L 91 165.5 L 91.5 167 L 87 166.5 L 93 164 L 91.5 161 L 89.5 162 L 87.5 161 L 86.5 164 L 85 163.5 Q 85.8 166.1 82.5 165 L 81.5 166 L 65.5 166 L 63.5 167 L 53.5 164 L 45 159.5 L 44.5 158 L 43 158.5 L 42.5 157 L 41 157.5 L 39.5 155 L 38 155.5 Q 40.3 154.3 37.5 153 L 34.5 151 L 33.5 152 L 28.5 146 Z " /><path fill="rgb(43,82,94)" stroke="rgb(43,82,94)" stroke-width="1" opacity="1" d="M 87.5 148 L 90 152.5 L 84.5 155 L 84.5 152 L 88 153 L 87.5 148 Z " /><path fill="rgb(43,82,94)" stroke="rgb(43,82,94)" stroke-width="1" opacity="1" d="M 62.5 152 L 65 156.5 L 63 157 L 62.5 152 Z " /><path fill="rgb(43,82,94)" stroke="rgb(43,82,94)" stroke-width="1" opacity="1" d="M 93.5 152 L 95 154.5 L 93 153.5 L 93.5 152 Z " /><path fill="rgb(43,82,94)" stroke="rgb(43,82,94)" stroke-width="1" opacity="1" d="M 67.5 153 L 70.5 158 L 72.5 153 L 73 155.5 L 72 159 L 68 156.5 L 67.5 153 Z " /><path fill="rgb(43,82,94)" stroke="rgb(43,82,94)" stroke-width="1" opacity="1" d="M 76.5 154 L 77 156 Q 79.7 157.1 79 154.5 L 80.5 155 L 83 155.5 L 76.5 158 L 76.5 154 Z " /><path fill="rgb(43,82,94)" stroke="rgb(43,82,94)" stroke-width="1" opacity="1" d="M 96.5 161 L 97.5 163 L 96.5 161 Z " /><path fill="rgb(43,82,94)" stroke="rgb(43,82,94)" stroke-width="1" opacity="1" d="M 69.5 167 L 74 167.5 L 69.5 168 L 69.5 167 Z " /><path fill="rgb(43,82,94)" stroke="rgb(43,82,94)" stroke-width="1" opacity="1" d="M 81.5 167 L 86 167.5 L 81.5 168 L 81.5 167 Z " /><path fill="rgb(43,82,94)" stroke="rgb(43,82,94)" stroke-width="1" opacity="1" d="M 108.5 172 L 109.5 174 L 108.5 172 Z " /><path fill="rgb(43,82,94)" stroke="rgb(43,82,94)" stroke-width="1" opacity="1" d="M 114.5 175 L 113.5 177 L 114.5 175 Z " /><path fill="rgb(14,24,27)" stroke="rgb(14,24,27)" stroke-width="1" opacity="1" d="M 121.5 1 L 123 4.5 L 121 5 L 120.5 7 L 118.5 4 L 116 5.5 L 116.5 7 Q 115 3.5 113.5 6 L 109 8 Q 110.1 10.7 107.5 10 L 94.5 24 L 94 22.5 L 103.5 12 L 115.5 3 L 117.5 4 L 117.5 2 L 121 4.5 L 121.5 1 Z " /><path fill="rgb(14,24,27)" stroke="rgb(14,24,27)" stroke-width="1" opacity="1" d="M 122.5 7 L 124 9.5 L 122 8.5 L 122.5 7 Z " /><path fill="rgb(14,24,27)" stroke="rgb(14,24,27)" stroke-width="1" opacity="1" d="M 123.5 12 L 126 13.5 L 124.5 14 L 123.5 12 Z " /><path fill="rgb(14,24,27)" stroke="rgb(14,24,27)" stroke-width="1" opacity="1" d="M 102.5 17 L 101.5 19 L 102.5 17 Z " /><path fill="rgb(14,24,27)" stroke="rgb(14,24,27)" stroke-width="1" opacity="1" d="M 139.5 23 L 140 26.5 L 139 26.5 L 139.5 23 Z " /><path fill="rgb(14,24,27)" stroke="rgb(14,24,27)" stroke-width="1" opacity="1" d="M 91 26 L 93 26.5 L 91 27.5 L 91 26 Z " /><path fill="rgb(14,24,27)" stroke="rgb(14,24,27)" stroke-width="1" opacity="1" d="M 199.5 32 L 200 100.5 L 199 100.5 Q 200 96 197.5 95 L 196 95.5 Q 198.3 94.3 195.5 93 L 193.5 94 L 194.5 91 Q 192.3 91.8 193 89.5 L 189 89.5 L 190 78.5 L 191 77.5 L 190.5 76 L 195 79.5 Q 194.3 77.3 196.5 78 L 196.5 76 L 198 76.5 L 197.5 74 L 196 74.5 L 196.5 71 L 193.5 69 L 192 69.5 L 193 67.5 L 190.5 67 L 188 69.5 L 189 71.5 L 186.5 73 L 187 71.5 L 186 66.5 L 189 67.5 L 190 64.5 L 189.5 63 Q 191.8 67.3 194 62.5 L 193 60.5 L 194 57.5 L 192 57.5 Q 195.1 55.8 193.5 54 Q 195.8 58.3 198 53.5 L 197.5 49 L 196 49.5 L 198 45 L 195.5 46 L 196 44.5 L 197 41.5 L 197 39.5 L 198 37.5 L 196.5 37 L 194 38.5 L 197.5 33 L 199 33.5 L 199.5 32 Z " /><path fill="rgb(14,24,27)" stroke="rgb(14,24,27)" stroke-width="1" opacity="1" d="M 85 35 L 87 35.5 L 85 36.5 L 85 35 Z " /><path fill="rgb(14,24,27)" stroke="rgb(14,24,27)" stroke-width="1" opacity="1" d="M 80 37 L 85.5 39 L 87 38.5 Q 84.7 39.8 87.5 41 L 98.5 44 L 122.5 44 L 123.5 43 L 140 41.5 L 139.5 40 Q 141.3 42.8 147.5 41 L 148.5 40 L 158 40 L 157 48.5 L 158.5 51 L 160 50.5 Q 157 51.5 158 56.5 L 170 80.5 L 173 91.5 L 170 102.5 L 161.5 113 L 158.5 115 L 145.5 100 L 119.5 87 L 117.5 87 L 94.5 76 L 74 59.5 L 72 56.5 L 71 53.5 L 80 37 Z M 82 39 Q 76 46 73 56 Q 84 69 100 77 L 132 90 L 149 100 L 157 111 L 160 112 L 169 101 L 171 93 L 167 78 L 160 67 L 160 64 L 157 58 L 156 41 L 126 44 L 125 45 L 113 45 L 112 46 Q 92 47 82 39 Z " /><path fill="rgb(14,24,27)" stroke="rgb(14,24,27)" stroke-width="1" opacity="1" d="M 167.5 54 L 166.5 56 L 165 55.5 L 167.5 54 Z " /><path fill="rgb(14,24,27)" stroke="rgb(14,24,27)" stroke-width="1" opacity="1" d="M 169.5 55 L 168.5 57 L 169.5 55 Z " /><path fill="rgb(14,24,27)" stroke="rgb(14,24,27)" stroke-width="1" opacity="1" d="M 185.5 56 L 185 57.5 L 185.5 59 L 187.5 58 L 187.5 59 L 186 59.5 L 188 60.5 L 186 61 L 187 64.5 L 186 64.5 L 185 59.5 L 183 57.5 L 185.5 56 Z " /><path fill="rgb(14,24,27)" stroke="rgb(14,24,27)" stroke-width="1" opacity="1" d="M 166.5 58 L 167.5 60 L 166.5 58 Z " /><path fill="rgb(14,24,27)" stroke="rgb(14,24,27)" stroke-width="1" opacity="1" d="M 168.5 61 L 172 62.5 L 173 64.5 L 170 64.5 L 171 62.5 Q 168.9 64.1 168.5 61 Z " /><path fill="rgb(14,24,27)" stroke="rgb(14,24,27)" stroke-width="1" opacity="1" d="M 171.5 66 L 174 66.5 Q 171.9 69.8 171.5 66 Z " /><path fill="rgb(14,24,27)" stroke="rgb(14,24,27)" stroke-width="1" opacity="1" d="M 166.5 67 L 167.5 69 L 166.5 67 Z " /><path fill="rgb(14,24,27)" stroke="rgb(14,24,27)" stroke-width="1" opacity="1" d="M 174.5 68 L 178 73.5 L 176 72.5 L 174.5 69 L 173 69.5 L 174.5 68 Z " /><path fill="rgb(14,24,27)" stroke="rgb(14,24,27)" stroke-width="1" opacity="1" d="M 180.5 68 L 181.5 70 L 180.5 68 Z " /><path fill="rgb(14,24,27)" stroke="rgb(14,24,27)" stroke-width="1" opacity="1" d="M 168.5 70 L 167.5 72 L 168.5 70 Z " /><path fill="rgb(14,24,27)" stroke="rgb(14,24,27)" stroke-width="1" opacity="1" d="M 183.5 72 L 185.5 75 Q 182.9 74.2 184 77.5 L 183 77.5 L 184 74.5 L 182 73.5 L 183.5 72 Z " /><path fill="rgb(14,24,27)" stroke="rgb(14,24,27)" stroke-width="1" opacity="1" d="M 169 74 Q 172 73 171 76 Q 168 77 169 74 Z " /><path fill="rgb(14,24,27)" stroke="rgb(14,24,27)" stroke-width="1" opacity="1" d="M 58.5 75 L 57.5 77 L 58.5 75 Z " /><path fill="rgb(14,24,27)" stroke="rgb(14,24,27)" stroke-width="1" opacity="1" d="M 178.5 75 L 180 77.5 L 179 77.5 L 178.5 75 Z " /><path fill="rgb(14,24,27)" stroke="rgb(14,24,27)" stroke-width="1" opacity="1" d="M 57.5 87 L 56.5 89 L 57.5 87 Z " /><path fill="rgb(14,24,27)" stroke="rgb(14,24,27)" stroke-width="1" opacity="1" d="M 54.5 93 L 56 97.5 L 53 99 L 52.5 101 L 52 99 Q 49.3 100.1 50 97.5 L 51.5 94 Q 53 96.5 54.5 93 Z " /><path fill="rgb(14,24,27)" stroke="rgb(14,24,27)" stroke-width="1" opacity="1" d="M 119.5 93 L 120.5 95 L 119.5 93 Z " /><path fill="rgb(14,24,27)" stroke="rgb(14,24,27)" stroke-width="1" opacity="1" d="M 132.5 94 L 133.5 96 L 132.5 94 Z " /><path fill="rgb(14,24,27)" stroke="rgb(14,24,27)" stroke-width="1" opacity="1" d="M 83.5 95 L 84 97 L 86 97.5 L 84.5 98 L 83.5 95 Z " /><path fill="rgb(14,24,27)" stroke="rgb(14,24,27)" stroke-width="1" opacity="1" d="M 184.5 96 L 186.5 96 L 189 98.5 L 186.5 97 L 184.5 99 Q 182.3 98.3 183 100.5 L 181 101.5 L 183.5 98 L 185 97.5 L 184.5 96 Z " /><path fill="rgb(14,24,27)" stroke="rgb(14,24,27)" stroke-width="1" opacity="1" d="M 87.5 98 L 90 98.5 L 87.5 99 L 87.5 98 Z " /><path fill="rgb(14,24,27)" stroke="rgb(14,24,27)" stroke-width="1" opacity="1" d="M 83.5 103 L 84 105 L 82 104.5 L 83.5 103 Z " /><path fill="rgb(14,24,27)" stroke="rgb(14,24,27)" stroke-width="1" opacity="1" d="M 67.5 109 L 68 111.5 L 67 111.5 L 67.5 109 Z " /><path fill="rgb(14,24,27)" stroke="rgb(14,24,27)" stroke-width="1" opacity="1" d="M 119.5 109 L 120.5 111 Q 117.7 111.7 119.5 109 Z " /><path fill="rgb(14,24,27)" stroke="rgb(14,24,27)" stroke-width="1" opacity="1" d="M 26 110 L 28 110.5 L 26 111.5 L 26 110 Z " /><path fill="rgb(14,24,27)" stroke="rgb(14,24,27)" stroke-width="1" opacity="1" d="M 55.5 110 L 56.5 112 Q 53.9 111.2 55 114.5 L 54 114.5 L 55.5 110 Z " /><path fill="rgb(14,24,27)" stroke="rgb(14,24,27)" stroke-width="1" opacity="1" d="M 44.5 115 L 46 115.5 L 43.5 117 L 44.5 115 Z " /><path fill="rgb(14,24,27)" stroke="rgb(14,24,27)" stroke-width="1" opacity="1" d="M 169.5 120 L 168.5 122 L 169.5 120 Z " /><path fill="rgb(14,24,27)" stroke="rgb(14,24,27)" stroke-width="1" opacity="1" d="M 168.5 123 L 167.5 125 L 168.5 123 Z " /><path fill="rgb(14,24,27)" stroke="rgb(14,24,27)" stroke-width="1" opacity="1" d="M 14 124 Q 18.1 122.3 17 126.5 L 16 126.5 L 15.5 125 L 14 125.5 L 14 124 Z " /><path fill="rgb(14,24,27)" stroke="rgb(14,24,27)" stroke-width="1" opacity="1" d="M 154.5 125 L 155.5 127 L 154.5 125 Z " /><path fill="rgb(14,24,27)" stroke="rgb(14,24,27)" stroke-width="1" opacity="1" d="M 161.5 130 L 163 130.5 L 161 131.5 L 162.5 134 Q 158 132 161.5 130 Z " /><path fill="rgb(14,24,27)" stroke="rgb(14,24,27)" stroke-width="1" opacity="1" d="M 166.5 136 L 169 136.5 Q 166.9 139.8 166.5 136 Z " /><path fill="rgb(14,24,27)" stroke="rgb(14,24,27)" stroke-width="1" opacity="1" d="M 169.5 138 L 172 138.5 Q 171.2 141.1 174.5 140 L 177 141 L 177.5 143 L 179 142.5 L 159.5 153 L 161.5 150 L 165 147.5 L 167 142 L 171 140.5 L 169.5 138 Z " /><path fill="rgb(14,24,27)" stroke="rgb(14,24,27)" stroke-width="1" opacity="1" d="M 28.5 150 L 29.5 152 L 28.5 150 Z " /><path fill="rgb(14,24,27)" stroke="rgb(14,24,27)" stroke-width="1" opacity="1" d="M 157.5 153 L 156.5 155 L 154.5 156 L 155.5 154 L 157.5 153 Z " /><path fill="rgb(14,24,27)" stroke="rgb(14,24,27)" stroke-width="1" opacity="1" d="M 121.5 154 L 122.5 156 L 124.5 155 L 124.5 157 L 127.5 156 L 127.5 158 L 132.5 157 L 132.5 158 L 131 158.5 L 133.5 159 L 137.5 158 L 137.5 159 L 136 159.5 L 140.5 160 Q 141.8 157.8 146.5 159 L 146.5 160 L 118.5 174 L 113.5 175 L 110 174 L 107.5 170 L 101 166.5 L 103 165.5 L 102.5 164 L 105.5 165 L 105.5 163 L 107.5 164 L 107.5 162 L 110.5 163 L 110.5 161 L 112.5 162 L 112.5 160 L 114.5 161 L 117 160 L 117.5 158 L 119.5 159 L 119.5 157 L 121 157.5 L 121.5 154 Z " /><path fill="rgb(14,24,27)" stroke="rgb(14,24,27)" stroke-width="1" opacity="1" d="M 40.5 157 L 41.5 159 L 40.5 157 Z " /><path fill="rgb(14,24,27)" stroke="rgb(14,24,27)" stroke-width="1" opacity="1" d="M 43.5 159 L 42.5 161 L 43.5 159 Z " /><path fill="rgb(14,24,27)" stroke="rgb(14,24,27)" stroke-width="1" opacity="1" d="M 49.5 162 L 49.5 164 L 51.5 163 L 51.5 165 L 54.5 164 L 54.5 165 L 53 165.5 L 53.5 167 L 47 163.5 L 49.5 162 Z " /><path fill="rgb(14,24,27)" stroke="rgb(14,24,27)" stroke-width="1" opacity="1" d="M 62.5 167 L 66 167.5 L 62.5 168 L 62.5 167 Z " /><path fill="rgb(14,24,27)" stroke="rgb(14,24,27)" stroke-width="1" opacity="1" d="M 72.5 168 L 83 168.5 L 72.5 169 L 72.5 168 Z " /><path fill="rgb(14,24,27)" stroke="rgb(14,24,27)" stroke-width="1" opacity="1" d="M 76.5 170 L 80 170.5 L 76.5 171 L 76.5 170 Z " /><path fill="rgb(14,24,27)" stroke="rgb(14,24,27)" stroke-width="1" opacity="1" d="M 115.5 175 L 114.5 177 L 115.5 175 Z " /><path fill="rgb(14,24,27)" stroke="rgb(14,24,27)" stroke-width="1" opacity="1" d="M 36.5 180 L 37 184.5 L 36 184.5 L 36.5 180 Z " /></svg>