<svg width="388" height="388" version="1.1" xmlns="http://www.w3.org/2000/svg" desc="Created with imagetracer.js version 1.2.6" ><path fill="rgb(214,101,65)" stroke="rgb(214,101,65)" stroke-width="1" opacity="1" d="M 106 57 L 112 57 Q 110.5 61.5 115 60 L 115 68.5 L 118 69 L 118 77.5 L 121 78 L 121 84 L 115 84 L 115 87 L 109 87 L 108.5 90 L 100 90 L 99.5 93 L 85 93 L 85 90 L 82 89.5 L 82 81 L 85 81 L 85 78 L 88 78 L 88 75 L 91 75 L 91 72 L 94 72 L 94 69 L 97 69 L 97 66 L 100 66 L 100 63 L 103 63 Q 101.5 58.5 106 60 L 106 57 Z " /><path fill="rgb(214,101,65)" stroke="rgb(214,101,65)" stroke-width="1" opacity="1" d="M 211.5 143 L 216 143.5 L 211.5 144 L 211.5 143 Z " /><path fill="rgb(214,101,65)" stroke="rgb(214,101,65)" stroke-width="1" opacity="1" d="M 217.5 146 L 220 146.5 L 217.5 147 L 217.5 146 Z " /><path fill="rgb(214,101,65)" stroke="rgb(214,101,65)" stroke-width="1" opacity="1" d="M 232.5 146 L 237 146.5 L 232.5 147 L 232.5 146 Z " /><path fill="rgb(214,101,65)" stroke="rgb(214,101,65)" stroke-width="1" opacity="1" d="M 154.5 149 L 157 149.5 L 154.5 150 L 154.5 149 Z " /><path fill="rgb(214,101,65)" stroke="rgb(214,101,65)" stroke-width="1" opacity="1" d="M 223.5 149 L 232 149.5 L 223.5 150 L 223.5 149 Z " /><path fill="rgb(214,101,65)" stroke="rgb(214,101,65)" stroke-width="1" opacity="1" d="M 232.5 152 L 240 152.5 L 232.5 153 L 232.5 152 Z " /><path fill="rgb(214,101,65)" stroke="rgb(214,101,65)" stroke-width="1" opacity="1" d="M 241.5 155 L 262 155.5 L 241.5 156 L 241.5 155 Z " /><path fill="rgb(214,101,65)" stroke="rgb(214,101,65)" stroke-width="1" opacity="1" d="M 262.5 158 L 265 158.5 L 262.5 159 L 262.5 158 Z " /><path fill="rgb(214,101,65)" stroke="rgb(214,101,65)" stroke-width="1" opacity="1" d="M 145.5 161 L 151 161.5 L 145.5 162 L 145.5 161 Z " /><path fill="rgb(214,101,65)" stroke="rgb(214,101,65)" stroke-width="1" opacity="1" d="M 289.5 161 L 312 161.5 L 289.5 162 L 289.5 161 Z " /><path fill="rgb(214,101,65)" stroke="rgb(214,101,65)" stroke-width="1" opacity="1" d="M 142.5 164 L 145 164.5 L 142.5 165 L 142.5 164 Z " /><path fill="rgb(214,101,65)" stroke="rgb(214,101,65)" stroke-width="1" opacity="1" d="M 265.5 164 L 271 164.5 L 265.5 165 L 265.5 164 Z " /><path fill="rgb(214,101,65)" stroke="rgb(214,101,65)" stroke-width="1" opacity="1" d="M 280.5 164 L 289 164.5 L 280.5 165 L 280.5 164 Z " /><path fill="rgb(214,101,65)" stroke="rgb(214,101,65)" stroke-width="1" opacity="1" d="M 271.5 167 L 280 167.5 L 271.5 168 L 271.5 167 Z " /><path fill="rgb(214,101,65)" stroke="rgb(214,101,65)" stroke-width="1" opacity="1" d="M 139.5 170 L 142 170.5 L 139.5 171 L 139.5 170 Z " /><path fill="rgb(214,101,65)" stroke="rgb(214,101,65)" stroke-width="1" opacity="1" d="M 133.5 179 L 136 179.5 L 133.5 180 L 133.5 179 Z " /><path fill="rgb(214,101,65)" stroke="rgb(214,101,65)" stroke-width="1" opacity="1" d="M 136.5 182 L 139 182.5 L 136.5 183 L 136.5 182 Z " /><path fill="rgb(214,101,65)" stroke="rgb(214,101,65)" stroke-width="1" opacity="1" d="M 310.5 194 L 313 194.5 L 310.5 195 L 310.5 194 Z " /><path fill="rgb(214,101,65)" stroke="rgb(214,101,65)" stroke-width="1" opacity="1" d="M 136.5 200 L 139 200.5 L 136.5 201 L 136.5 200 Z " /><path fill="rgb(214,101,65)" stroke="rgb(214,101,65)" stroke-width="1" opacity="1" d="M 304.5 203 L 310 203.5 L 304.5 204 L 304.5 203 Z " /><path fill="rgb(214,101,65)" stroke="rgb(214,101,65)" stroke-width="1" opacity="1" d="M 301.5 206 L 304 206.5 L 301.5 207 L 301.5 206 Z " /><path fill="rgb(214,101,65)" stroke="rgb(214,101,65)" stroke-width="1" opacity="1" d="M 298.5 209 L 301 209.5 L 298.5 210 L 298.5 209 Z " /><path fill="rgb(214,101,65)" stroke="rgb(214,101,65)" stroke-width="1" opacity="1" d="M 139.5 212 L 142 212.5 L 139.5 213 L 139.5 212 Z " /><path fill="rgb(214,101,65)" stroke="rgb(214,101,65)" stroke-width="1" opacity="1" d="M 295.5 215 L 298 215.5 L 295.5 216 L 295.5 215 Z " /><path fill="rgb(214,101,65)" stroke="rgb(214,101,65)" stroke-width="1" opacity="1" d="M 142.5 218 L 145 218.5 L 142.5 219 L 142.5 218 Z " /><path fill="rgb(214,101,65)" stroke="rgb(214,101,65)" stroke-width="1" opacity="1" d="M 292.5 218 L 295 218.5 L 292.5 219 L 292.5 218 Z " /><path fill="rgb(214,101,65)" stroke="rgb(214,101,65)" stroke-width="1" opacity="1" d="M 145.5 227 L 148 227.5 L 145.5 228 L 145.5 227 Z " /><path fill="rgb(214,101,65)" stroke="rgb(214,101,65)" stroke-width="1" opacity="1" d="M 289.5 227 L 292 227.5 L 289.5 228 L 289.5 227 Z " /><path fill="rgb(214,101,65)" stroke="rgb(214,101,65)" stroke-width="1" opacity="1" d="M 148.5 233 L 151 233.5 L 148.5 234 L 148.5 233 Z " /><path fill="rgb(214,101,65)" stroke="rgb(214,101,65)" stroke-width="1" opacity="1" d="M 154.5 239 L 157 239.5 L 154.5 240 L 154.5 239 Z " /><path fill="rgb(214,101,65)" stroke="rgb(214,101,65)" stroke-width="1" opacity="1" d="M 172 272 L 184 272 L 184 278 L 181 278.5 L 181 317 L 178 317 L 178 320 L 175 320 L 175 323 L 172 323 L 172 326 Q 167.5 324.5 169 329 L 160.5 329 L 160 332 L 154 332 L 154 335 L 148 335 L 148 332 L 145 332 L 144.5 329 L 127 329 L 127 323 Q 131.5 324.5 130 320 L 127 320 Q 128.5 315.5 124 317 L 124 311 L 141.5 311 L 142.5 308 L 156.5 308 L 157 305 L 163 305 Q 161.5 300.5 166 302 L 166 296 L 169 295.5 L 169 281.5 L 172 281 L 172 272 Z " /><path fill="rgb(214,101,65)" stroke="rgb(214,101,65)" stroke-width="1" opacity="1" d="M 241 299 L 253 299 L 253 311 L 250 311.5 L 250 334.5 L 247 335.5 L 247 364.5 L 246.5 365 L 238 365 L 238 362 L 229 362 L 229 365 L 220 365 L 220 362 L 214 362 L 214 359 Q 209.5 360.5 211 356 L 205 356 L 204.5 353 L 196 353 L 196 347 L 207.5 347 L 208 344 L 214 344 L 214 341 L 226 341 L 226 338 L 232 338 L 232 335 L 235 335 Q 233.5 330.5 238 332 L 238 320.5 L 241 319.5 L 241 299 Z " /><path fill="rgb(65,65,65)" stroke="rgb(65,65,65)" stroke-width="1" opacity="1" d="M 124 57 L 133 57 L 133 66 L 124 66 L 124 57 Z " /><path fill="rgb(66,66,66)" stroke="rgb(66,66,66)" stroke-width="1" opacity="1" d="M 0 0 L 388 0 L 388 388 L 0 388 L 0 0 Z M 121 45 L 121 48 L 115 48 Q 117 53 112 51 L 112 54 L 109 54 L 109 57 L 106 57 L 106 60 L 103 60 L 103 63 L 100 63 L 100 66 L 97 66 L 97 69 L 94 69 L 94 72 L 91 72 L 91 75 L 88 75 L 88 78 L 85 78 L 85 81 L 82 81 L 82 90 L 85 90 L 85 93 L 100 93 L 100 90 L 109 90 L 109 87 L 115 87 L 115 84 L 136 84 L 137 87 L 148 87 L 148 90 L 154 90 Q 153 95 157 93 L 157 96 L 160 96 L 160 132 L 157 133 L 157 149 L 154 149 L 154 152 L 151 154 L 151 161 L 145 161 Q 147 166 142 164 L 142 170 L 139 170 L 139 182 Q 135 184 136 179 L 133 179 L 133 183 L 136 184 L 136 201 L 139 202 L 139 213 L 142 213 L 142 219 L 145 219 L 145 228 L 148 228 L 148 234 L 151 234 L 153 237 Q 156 236 154 240 L 157 240 Q 156 245 159 246 L 160 247 L 160 254 L 163 255 L 163 263 Q 168 262 166 266 L 169 266 L 169 269 L 172 269 L 172 281 L 169 282 L 169 296 L 166 296 L 166 302 Q 162 301 163 305 L 157 305 L 157 308 L 143 308 L 142 311 L 124 311 L 124 317 Q 129 316 127 320 L 130 320 Q 132 325 127 323 L 127 329 L 145 329 L 145 332 L 148 332 L 148 335 L 154 335 L 154 332 L 160 332 L 161 329 L 169 329 Q 168 325 172 326 L 172 323 L 175 323 L 175 320 L 178 320 L 178 317 L 181 317 L 181 279 L 184 278 L 184 269 L 193 269 L 194 272 L 202 272 L 202 275 L 208 275 L 208 278 L 214 278 L 215 281 L 223 281 Q 222 286 226 284 L 226 287 L 229 287 L 229 293 L 235 293 Q 234 298 238 296 L 238 299 L 241 299 L 241 320 L 238 321 L 238 332 Q 234 331 235 335 L 232 335 L 232 338 L 226 338 L 226 341 L 214 341 L 214 344 L 208 344 L 208 347 L 196 347 L 196 353 L 205 353 L 205 356 L 211 356 Q 210 361 214 359 L 214 362 L 220 362 L 220 365 L 229 365 L 229 362 L 238 362 L 238 365 L 247 365 L 247 365 L 247 336 L 250 335 L 250 312 L 253 311 L 253 297 L 256 296 L 256 293 L 259 293 L 259 290 L 262 290 L 262 284 L 265 284 L 265 275 L 268 275 L 268 269 L 271 269 L 271 260 Q 276 262 274 257 L 277 257 Q 276 252 279 251 L 280 251 L 280 246 L 283 245 Q 282 242 285 243 Q 287 242 286 237 L 289 236 L 289 228 L 292 228 L 292 219 Q 297 221 295 216 L 298 216 L 298 210 Q 303 212 301 207 L 304 207 L 304 204 L 310 204 L 310 195 L 313 195 L 313 186 L 316 186 L 316 166 L 313 164 L 312 161 L 290 161 L 289 164 L 280 164 L 280 167 L 272 167 L 271 164 L 265 164 L 265 158 Q 261 160 262 155 L 242 155 L 241 154 L 240 152 L 232 152 L 232 150 L 238 150 L 237 146 L 232 146 L 232 149 L 223 149 Q 224 144 222 143 Q 219 142 220 146 L 217 146 L 216 143 L 211 143 Q 212 140 208 141 L 208 138 L 205 137 L 205 135 L 199 135 L 199 132 L 190 132 L 190 121 L 187 120 L 187 91 L 184 90 L 184 82 L 181 81 L 181 75 Q 177 77 178 72 L 175 72 L 175 69 L 172 69 L 172 66 L 169 66 L 169 63 L 166 63 L 166 60 L 163 60 L 163 57 L 157 57 Q 159 53 154 54 L 154 51 L 151 51 L 151 48 L 142 48 L 142 45 L 121 45 Z " /><path fill="rgb(239,230,225)" stroke="rgb(239,230,225)" stroke-width="1" opacity="1" d="M 121.5 47 L 120.5 49 L 116 48.5 L 121.5 47 Z " /><path fill="rgb(239,230,225)" stroke="rgb(239,230,225)" stroke-width="1" opacity="1" d="M 142.5 48 Q 149.3 46.3 151 49.5 L 150.5 51 L 150 49 L 142.5 49 L 142.5 48 Z " /><path fill="rgb(239,230,225)" stroke="rgb(239,230,225)" stroke-width="1" opacity="1" d="M 154.5 54 L 157 55.5 L 156.5 57 L 156 55 L 154.5 54 Z " /><path fill="rgb(239,230,225)" stroke="rgb(239,230,225)" stroke-width="1" opacity="1" d="M 110.5 56 L 113 57.5 Q 112.2 60.5 116 59 L 116 67.5 L 117.5 68 L 119 69.5 L 119 77 Q 124.3 75.2 122 82.5 L 121 82.5 L 121 78 L 118 77.5 L 118 69 L 115 68.5 L 115 60 L 112 60 Q 113.5 56.2 110.5 57 L 110.5 56 Z " /><path fill="rgb(239,230,225)" stroke="rgb(239,230,225)" stroke-width="1" opacity="1" d="M 162.5 59 L 166 60.5 L 163.5 61 L 162.5 59 Z " /><path fill="rgb(239,230,225)" stroke="rgb(239,230,225)" stroke-width="1" opacity="1" d="M 168.5 65 L 172 66.5 L 169.5 67 L 168.5 65 Z " /><path fill="rgb(239,230,225)" stroke="rgb(239,230,225)" stroke-width="1" opacity="1" d="M 124.5 66 L 133 66.5 L 124.5 67 L 124.5 66 Z " /><path fill="rgb(239,230,225)" stroke="rgb(239,230,225)" stroke-width="1" opacity="1" d="M 174.5 71 L 178 72.5 L 175.5 73 L 174.5 71 Z " /><path fill="rgb(239,230,225)" stroke="rgb(239,230,225)" stroke-width="1" opacity="1" d="M 160.5 96 L 161 130.5 L 160 130.5 L 160.5 96 Z " /><path fill="rgb(239,230,225)" stroke="rgb(239,230,225)" stroke-width="1" opacity="1" d="M 190.5 132 L 198 132.5 L 190.5 133 L 190.5 132 Z " /><path fill="rgb(239,230,225)" stroke="rgb(239,230,225)" stroke-width="1" opacity="1" d="M 212.5 144 L 216 144.5 L 212.5 145 L 212.5 144 Z " /><path fill="rgb(239,230,225)" stroke="rgb(239,230,225)" stroke-width="1" opacity="1" d="M 155.5 150 L 154.5 152 L 155.5 150 Z " /><path fill="rgb(239,230,225)" stroke="rgb(239,230,225)" stroke-width="1" opacity="1" d="M 224.5 150 L 231.5 150 L 232 151.5 L 230.5 151 L 224.5 151 L 224.5 150 Z " /><path fill="rgb(239,230,225)" stroke="rgb(239,230,225)" stroke-width="1" opacity="1" d="M 242.5 156 L 260.5 156 L 262 157.5 L 261.5 159 L 261 157 L 242.5 157 L 242.5 156 Z " /><path fill="rgb(239,230,225)" stroke="rgb(239,230,225)" stroke-width="1" opacity="1" d="M 136.5 183 L 137 199.5 L 136 199.5 L 136.5 183 Z " /><path fill="rgb(239,230,225)" stroke="rgb(239,230,225)" stroke-width="1" opacity="1" d="M 142.5 213 L 143 217.5 L 142 217.5 L 142.5 213 Z " /><path fill="rgb(239,230,225)" stroke="rgb(239,230,225)" stroke-width="1" opacity="1" d="M 148.5 228 L 150 232.5 L 148 231.5 L 148.5 228 Z " /><path fill="rgb(239,230,225)" stroke="rgb(239,230,225)" stroke-width="1" opacity="1" d="M 154.5 237 L 155.5 239 L 154.5 237 Z " /><path fill="rgb(239,230,225)" stroke="rgb(239,230,225)" stroke-width="1" opacity="1" d="M 280.5 244 L 282 244.5 L 279.5 246 L 280.5 244 Z " /><path fill="rgb(239,230,225)" stroke="rgb(239,230,225)" stroke-width="1" opacity="1" d="M 160.5 246 L 161 253.5 L 160 253.5 L 160.5 246 Z " /><path fill="rgb(239,230,225)" stroke="rgb(239,230,225)" stroke-width="1" opacity="1" d="M 274.5 256 L 276 256.5 L 273.5 258 L 274.5 256 Z " /><path fill="rgb(239,230,225)" stroke="rgb(239,230,225)" stroke-width="1" opacity="1" d="M 184.5 268 L 192 268.5 L 184.5 269 L 184.5 268 Z " /><path fill="rgb(239,230,225)" stroke="rgb(239,230,225)" stroke-width="1" opacity="1" d="M 268.5 268 L 270 268.5 L 268 269 Q 269.3 273.6 266.5 275 L 264.5 276 L 265.5 274 Q 268.9 274.9 267 269.5 L 268.5 268 Z " /><path fill="rgb(239,230,225)" stroke="rgb(239,230,225)" stroke-width="1" opacity="1" d="M 202.5 274 L 208 274.5 L 202.5 275 L 202.5 274 Z " /><path fill="rgb(239,230,225)" stroke="rgb(239,230,225)" stroke-width="1" opacity="1" d="M 214.5 280 L 222 280.5 L 214.5 281 L 214.5 280 Z " /><path fill="rgb(239,230,225)" stroke="rgb(239,230,225)" stroke-width="1" opacity="1" d="M 261.5 284 L 262 289.5 L 261 289.5 L 261.5 284 Z " /><path fill="rgb(239,230,225)" stroke="rgb(239,230,225)" stroke-width="1" opacity="1" d="M 230.5 292 Q 235 291 236 293.5 L 235.5 296 L 235 293 L 230.5 293 L 230.5 292 Z " /><path fill="rgb(239,230,225)" stroke="rgb(239,230,225)" stroke-width="1" opacity="1" d="M 256.5 292 L 258 292.5 L 256 293 L 255.5 296 L 255 293.5 L 256.5 292 Z " /><path fill="rgb(239,230,225)" stroke="rgb(239,230,225)" stroke-width="1" opacity="1" d="M 238.5 298 L 252 298.5 L 238.5 299 L 238.5 298 Z " /><path fill="rgb(228,224,222)" stroke="rgb(228,224,222)" stroke-width="1" opacity="1" d="M 115.5 48 L 116 50.5 L 115 50.5 L 115.5 48 Z " /><path fill="rgb(228,224,222)" stroke="rgb(228,224,222)" stroke-width="1" opacity="1" d="M 112.5 51 L 113 53.5 L 112 53.5 L 112.5 51 Z " /><path fill="rgb(228,224,222)" stroke="rgb(228,224,222)" stroke-width="1" opacity="1" d="M 109.5 54 L 110 56.5 L 109 56.5 L 109.5 54 Z " /><path fill="rgb(228,224,222)" stroke="rgb(228,224,222)" stroke-width="1" opacity="1" d="M 125.5 56 L 132 56.5 L 125.5 57 L 125.5 56 Z " /><path fill="rgb(228,224,222)" stroke="rgb(228,224,222)" stroke-width="1" opacity="1" d="M 133.5 57 L 134 65.5 L 133 65.5 L 133.5 57 Z " /><path fill="rgb(228,224,222)" stroke="rgb(228,224,222)" stroke-width="1" opacity="1" d="M 180.5 75 L 181 79.5 L 180 79.5 L 180.5 75 Z " /><path fill="rgb(228,224,222)" stroke="rgb(228,224,222)" stroke-width="1" opacity="1" d="M 121.5 83 L 136 83.5 L 121.5 84 L 121.5 83 Z " /><path fill="rgb(228,224,222)" stroke="rgb(228,224,222)" stroke-width="1" opacity="1" d="M 136.5 86 L 148 86.5 L 136.5 87 L 136.5 86 Z " /><path fill="rgb(228,224,222)" stroke="rgb(228,224,222)" stroke-width="1" opacity="1" d="M 148.5 89 L 154 89.5 L 148.5 90 L 148.5 89 Z " /><path fill="rgb(228,224,222)" stroke="rgb(228,224,222)" stroke-width="1" opacity="1" d="M 186.5 90 L 187 118.5 L 186 118.5 L 186.5 90 Z " /><path fill="rgb(228,224,222)" stroke="rgb(228,224,222)" stroke-width="1" opacity="1" d="M 154.5 92 L 158 93.5 Q 157.3 95.8 159.5 95 L 159.5 96 L 157 96 Q 158.7 91.9 154.5 93 L 154.5 92 Z " /><path fill="rgb(228,224,222)" stroke="rgb(228,224,222)" stroke-width="1" opacity="1" d="M 157.5 132 L 158 148.5 L 157 148.5 L 157.5 132 Z " /><path fill="rgb(228,224,222)" stroke="rgb(228,224,222)" stroke-width="1" opacity="1" d="M 232.5 149 L 238 149.5 L 232.5 150 L 232.5 149 Z " /><path fill="rgb(228,224,222)" stroke="rgb(228,224,222)" stroke-width="1" opacity="1" d="M 151.5 153 L 152 160.5 L 151 160.5 L 151.5 153 Z " /><path fill="rgb(228,224,222)" stroke="rgb(228,224,222)" stroke-width="1" opacity="1" d="M 264.5 159 L 265 163.5 L 264 163.5 L 264.5 159 Z " /><path fill="rgb(228,224,222)" stroke="rgb(228,224,222)" stroke-width="1" opacity="1" d="M 312.5 162 L 313 164.5 L 312 164.5 L 312.5 162 Z " /><path fill="rgb(228,224,222)" stroke="rgb(228,224,222)" stroke-width="1" opacity="1" d="M 315.5 165 L 316 184.5 L 315 184.5 L 315.5 165 Z " /><path fill="rgb(228,224,222)" stroke="rgb(228,224,222)" stroke-width="1" opacity="1" d="M 139.5 171 L 140 181.5 L 139 181.5 L 139.5 171 Z " /><path fill="rgb(228,224,222)" stroke="rgb(228,224,222)" stroke-width="1" opacity="1" d="M 133.5 180 L 134 182 L 136 182.5 L 134.5 183 L 133.5 180 Z " /><path fill="rgb(228,224,222)" stroke="rgb(228,224,222)" stroke-width="1" opacity="1" d="M 312 185 L 314 185.5 L 312.5 194 L 312 185 Z " /><path fill="rgb(228,224,222)" stroke="rgb(228,224,222)" stroke-width="1" opacity="1" d="M 309.5 194 L 310 202.5 L 309 202.5 L 309.5 194 Z " /><path fill="rgb(228,224,222)" stroke="rgb(228,224,222)" stroke-width="1" opacity="1" d="M 139.5 201 L 140 211.5 L 139 211.5 L 139.5 201 Z " /><path fill="rgb(228,224,222)" stroke="rgb(228,224,222)" stroke-width="1" opacity="1" d="M 303.5 203 L 304 205.5 L 303 205.5 L 303.5 203 Z " /><path fill="rgb(228,224,222)" stroke="rgb(228,224,222)" stroke-width="1" opacity="1" d="M 300.5 206 L 301 208.5 L 300 208.5 L 300.5 206 Z " /><path fill="rgb(228,224,222)" stroke="rgb(228,224,222)" stroke-width="1" opacity="1" d="M 297.5 209 L 298 214.5 L 297 214.5 L 297.5 209 Z " /><path fill="rgb(228,224,222)" stroke="rgb(228,224,222)" stroke-width="1" opacity="1" d="M 294.5 215 L 295 217.5 L 294 217.5 L 294.5 215 Z " /><path fill="rgb(228,224,222)" stroke="rgb(228,224,222)" stroke-width="1" opacity="1" d="M 291.5 218 L 292 226.5 L 291 226.5 L 291.5 218 Z " /><path fill="rgb(228,224,222)" stroke="rgb(228,224,222)" stroke-width="1" opacity="1" d="M 145.5 219 L 146 226.5 L 145 226.5 L 145.5 219 Z " /><path fill="rgb(228,224,222)" stroke="rgb(228,224,222)" stroke-width="1" opacity="1" d="M 288.5 227 L 289 235.5 L 288 235.5 L 288.5 227 Z " /><path fill="rgb(228,224,222)" stroke="rgb(228,224,222)" stroke-width="1" opacity="1" d="M 285.5 236 L 286 241.5 L 285 241.5 L 285.5 236 Z " /><path fill="rgb(228,224,222)" stroke="rgb(228,224,222)" stroke-width="1" opacity="1" d="M 157.5 240 L 158 244.5 L 157 244.5 L 157.5 240 Z " /><path fill="rgb(228,224,222)" stroke="rgb(228,224,222)" stroke-width="1" opacity="1" d="M 282.5 242 L 283 244.5 L 282 244.5 L 282.5 242 Z " /><path fill="rgb(228,224,222)" stroke="rgb(228,224,222)" stroke-width="1" opacity="1" d="M 279.5 246 L 280 250.5 L 279 250.5 L 279.5 246 Z " /><path fill="rgb(228,224,222)" stroke="rgb(228,224,222)" stroke-width="1" opacity="1" d="M 276.5 251 L 277 256.5 L 276 256.5 L 276.5 251 Z " /><path fill="rgb(228,224,222)" stroke="rgb(228,224,222)" stroke-width="1" opacity="1" d="M 163.5 255 L 164 262.5 L 163 262.5 L 163.5 255 Z " /><path fill="rgb(228,224,222)" stroke="rgb(228,224,222)" stroke-width="1" opacity="1" d="M 270.5 261 L 271 268.5 L 270 268.5 L 270.5 261 Z " /><path fill="rgb(228,224,222)" stroke="rgb(228,224,222)" stroke-width="1" opacity="1" d="M 264.5 276 L 265 283.5 L 264 283.5 L 264.5 276 Z " /><path fill="rgb(228,224,222)" stroke="rgb(228,224,222)" stroke-width="1" opacity="1" d="M 229.5 288 L 230 292.5 L 229 292.5 L 229.5 288 Z " /><path fill="rgb(238,235,233)" stroke="rgb(238,235,233)" stroke-width="1" opacity="1" d="M 183.5 81 L 184 89.5 L 183 89.5 L 183.5 81 Z " /><path fill="rgb(238,235,233)" stroke="rgb(238,235,233)" stroke-width="1" opacity="1" d="M 189.5 121 L 190 131.5 L 189 131.5 L 189.5 121 Z " /><path fill="rgb(238,235,233)" stroke="rgb(238,235,233)" stroke-width="1" opacity="1" d="M 166 135 L 169 135 L 169 144 L 166 144 Q 167.5 148.5 163 147 L 163 152.5 L 160 153 L 160 159 L 157 159 L 157 162 L 154 162 Q 155.5 166.5 151 165 L 151 171 L 148 171.5 L 148 185 L 151 185 L 151 176 L 154 176 L 154 171 L 155.5 171 L 158.5 167 L 161.5 165 L 163 163.5 Q 161.3 156.8 164.5 155 Q 167.1 155.7 166 153 L 169 153 L 169 150 L 172 150 L 172 144 L 175 144 Q 173.5 139.5 178 141 L 178 144 Q 174.2 142.5 175 145.5 Q 176.4 148.3 181 147 Q 179.5 142.5 184 144 L 184 147 L 190 147 L 190 144 L 193 144 Q 191.5 139.5 196 141 L 196 146 L 200.5 146 L 201.5 147 L 208 147 L 208 150 Q 212.5 148.5 211 153 L 216.5 153 L 217 155 L 218.5 155 L 220 159 Q 224.5 157.5 223 162 L 211 162 L 211 159 L 205 159 L 204.5 156 L 187.5 156 L 187 153 L 181 153 Q 182.5 148.5 178 150 L 178 156 L 175 156 L 175 159 Q 170.9 157.7 172 161 L 185.5 161 L 187 162.5 L 188.5 165 L 201.5 165 L 202.5 167 L 214 167 L 214.5 171 L 228.5 171 L 229.5 173 L 239.5 173 L 241 176 L 244 177.5 Q 243.2 180.5 247 179 Q 245.5 175.2 248.5 176 L 250 180 L 247 180 Q 248.5 184.5 244 183 L 244 180 L 235.5 180 L 235 177 L 232 177 L 232 180 L 226 180 L 225.5 177 L 214 177 L 214 183 L 211 183.5 L 211 200.5 L 208 201 L 208 203 Q 212.9 201.4 211 207 L 208 205.5 L 208 204 L 205 203.5 L 205 182 L 208 182 L 208 174 L 205 174 L 205 180 L 202 180.5 L 202 203.5 L 199 204 L 199 206 Q 203.6 204.8 205 207.5 Q 205.8 209.8 203.5 209 L 199 210 L 198.5 207 L 181 207 Q 179.7 210.7 185.5 209 L 190 210 Q 191.3 213 187.5 212 L 181 213 L 180.5 210 L 169.5 210 L 163.5 212 L 164 210.5 Q 164.8 208.3 162.5 209 L 160 210 Q 161.1 213.3 157 212 L 156.5 210 L 149.5 210 L 148 210.5 L 148.5 209 L 142 209 L 142 206 Q 138.7 207.1 140 203 L 168.5 203 L 169.5 200 L 186.5 200 L 187 199.5 L 187 192 L 172.5 192 L 171.5 195 L 137 195 L 137 183.5 L 140 183 L 140 176.5 Q 142.8 177.1 142 174 Q 138.7 175.1 140 171 L 143 169.5 L 142 165.5 L 143 165.5 Q 142 169.3 145 168 L 145 165 Q 149.1 166.3 148 163 L 146 162.5 L 152 162 L 152 153.5 L 153.5 153 L 158 150 L 158 144 Q 161.3 145.1 160 141 L 163 141 Q 161.5 145.5 166 144 L 166 135 Z M 181 147 Q 180 150 184 149 Q 185 146 181 147 Z M 190 147 L 190 150 L 196 150 L 196 147 L 190 147 Z M 172 150 L 172 153 L 175 152 Q 176 149 172 150 Z M 169 153 Q 168 156 172 155 Q 173 152 169 153 Z M 205 153 Q 204 156 208 155 Q 209 152 205 153 Z M 163 165 Q 162 168 166 167 Q 167 164 163 165 Z M 178 165 L 178 171 L 181 171 L 181 177 L 178 177 Q 177 180 181 179 L 181 182 L 184 182 L 184 185 L 187 185 L 187 176 L 190 176 L 190 168 L 184 168 L 184 165 L 178 165 Z M 160 168 L 160 171 L 163 170 Q 164 167 160 168 Z M 157 171 Q 156 174 160 173 Q 161 170 157 171 Z M 193 171 L 193 177 L 190 177 L 190 179 L 196 179 L 196 171 L 193 171 Z M 142 177 Q 141 180 145 179 Q 146 176 142 177 Z M 154 177 Q 153 180 157 179 Q 158 176 154 177 Z M 172 180 L 172 188 L 175 188 L 175 182 L 178 182 L 178 180 L 172 180 Z M 157 183 Q 156 186 160 185 Q 161 182 157 183 Z M 166 183 Q 165 186 169 185 Q 170 182 166 183 Z M 178 183 Q 177 186 181 185 Q 182 182 178 183 Z M 142 186 Q 141 189 145 188 Q 146 185 142 186 Z M 190 189 L 190 201 L 187 201 L 187 203 L 193 203 L 193 190 L 190 189 Z M 169 204 L 169 206 L 175 206 L 175 204 L 169 204 Z " /><path fill="rgb(238,235,233)" stroke="rgb(238,235,233)" stroke-width="1" opacity="1" d="M 220 144 L 223 144.5 L 221 145 L 220.5 147 L 220 144 Z " /><path fill="rgb(238,235,233)" stroke="rgb(238,235,233)" stroke-width="1" opacity="1" d="M 226 159 L 231.5 159 Q 230.8 162 235 161 L 235 159 L 241 159 Q 239.9 161.7 242.5 161 L 244.5 161 L 247 162.5 Q 248.1 166.7 244 165 L 244 168 L 241 168 L 241 165 L 232 165 L 232 162 L 226 162 L 226 159 Z " /><path fill="rgb(238,235,233)" stroke="rgb(238,235,233)" stroke-width="1" opacity="1" d="M 254 161 Q 257.8 160 259 162.5 L 259 167 Q 263.5 165.5 262 170 L 259 170 Q 260.1 166.7 256 168 Q 257.3 163.9 254 165 L 254 161 Z " /><path fill="rgb(238,235,233)" stroke="rgb(238,235,233)" stroke-width="1" opacity="1" d="M 290.5 162 L 312 162.5 L 290.5 163 L 290.5 162 Z " /><path fill="rgb(238,235,233)" stroke="rgb(238,235,233)" stroke-width="1" opacity="1" d="M 270.5 168 L 280 168.5 L 270.5 169 L 270.5 168 Z " /><path fill="rgb(238,235,233)" stroke="rgb(238,235,233)" stroke-width="1" opacity="1" d="M 312.5 184 L 315 184.5 L 312.5 185 L 312.5 184 Z " /><path fill="rgb(238,235,233)" stroke="rgb(238,235,233)" stroke-width="1" opacity="1" d="M 303.5 202 L 309 202.5 L 303.5 203 L 303.5 202 Z " /><path fill="rgb(238,235,233)" stroke="rgb(238,235,233)" stroke-width="1" opacity="1" d="M 297.5 208 L 300 208.5 L 297.5 209 L 297.5 208 Z " /><path fill="rgb(238,235,233)" stroke="rgb(238,235,233)" stroke-width="1" opacity="1" d="M 294.5 214 L 297 214.5 L 294.5 215 L 294.5 214 Z " /><path fill="rgb(238,235,233)" stroke="rgb(238,235,233)" stroke-width="1" opacity="1" d="M 146.5 226 Q 149.8 224.9 149 227.5 L 147.5 227 L 146.5 226 Z " /><path fill="rgb(238,235,233)" stroke="rgb(238,235,233)" stroke-width="1" opacity="1" d="M 288.5 226 L 291 226.5 L 288.5 227 L 288.5 226 Z " /><path fill="rgb(238,235,233)" stroke="rgb(238,235,233)" stroke-width="1" opacity="1" d="M 183.5 269 L 184 271.5 L 183 271.5 L 183.5 269 Z " /><path fill="rgb(238,235,233)" stroke="rgb(238,235,233)" stroke-width="1" opacity="1" d="M 208.5 275 L 209 277.5 L 208 277.5 L 208.5 275 Z " /><path fill="rgb(239,235,233)" stroke="rgb(239,235,233)" stroke-width="1" opacity="1" d="M 122 45 L 142 45 L 142 49 L 149.5 49 Q 148.7 52.3 154 51 L 154 55 Q 157 54 156 57 L 162 57 Q 159.9 62.2 164.5 61 L 168 63 L 168 67 L 171 67 Q 169.9 70.3 174 69 L 174 73 L 177 73 Q 175.9 76.3 180 75 L 180 81 L 183 81.5 L 183 89.5 L 186 91 L 186 120.5 L 189 121.5 L 189 131.5 L 190.5 133 L 198 133 L 198 135 L 204 135 L 204 139 L 207 139 Q 205.9 142.3 210 141 L 210 145 L 215.5 145 Q 214.7 148.5 221 147 Q 219.9 144.3 222.5 145 L 222 146.5 L 222 151 L 230.5 151 L 231.5 153 L 240 153 L 240.5 157 L 261 157 Q 259.9 160.3 264 159 L 264 165 L 270 165 L 270 169 L 280 169 L 280 165 L 289.5 165 L 290.5 163 L 312 163 L 312 165 L 315 165.5 L 315 184 L 312 184 L 312 193.5 L 309 194 L 309 202 L 303 202 L 303 206 L 300 206 Q 301.1 209.3 297 208 L 297 214 L 294 214 Q 295.9 219.6 291 218 L 291 226 L 288 226.5 L 288 236 L 285 236 L 285 242 L 282 242 Q 283.1 245.3 279 244 L 279 249.5 L 276 250 L 276 256 L 273 256 Q 274.9 261.6 270 260 L 270 267.5 L 267 268 L 267 274 L 264 274 L 264 283.5 L 261 284 L 261 290 L 258 290 Q 259.1 293.3 255 292 L 255 296 Q 250.9 294.7 252 298 L 238 298 Q 239 295 236 296 L 236 292 L 230 292 L 230 286 L 227.5 286 L 224 284 L 224 280 L 215.5 280 L 215 278 L 209 278 L 209 275.5 Q 207.6 272.8 203 274 L 202.5 272 L 194 272 L 193.5 268 L 184.5 268 L 183 272 L 173 272 L 173 268 L 170 268 Q 171.1 264.7 167 266 L 167 262 L 164 262 L 164 254 L 161 253.5 L 161 244 L 158 244 L 158 238 L 155 238 Q 156.1 234.7 152 236 L 152 232 L 149 232 L 149 226 L 146 226 L 146 218.5 L 143 218 L 143 212 L 140 212 L 140 206 Q 143.3 204.9 142 209 L 148.5 209 L 149.5 210 L 157 210 Q 155.9 213.3 160 212 Q 158.9 209.3 161.5 210 L 164 209 Q 162.7 212.7 168.5 211 L 169.5 210 L 181 210 Q 179.2 215.3 186.5 213 L 190 212 Q 191.3 208.7 186.5 210 L 181 209 L 181.5 207 L 199 207 Q 197.3 211.5 202.5 210 L 205 209 L 203.5 206 Q 197.7 207.7 199 204 L 202 203.5 L 202 180.5 L 205 180 L 205 174 L 208 174 L 208 182 L 205 182.5 L 205 204 Q 208.7 202.5 208 205.5 L 211 207 L 211 203 Q 206.9 204.3 208 201 L 211 200.5 L 211 183.5 L 214 183 L 214 177 L 226 177 L 226 180 L 232 180 Q 230.5 175.5 235 177 L 235 180 L 243.5 180 L 244 183 L 247 183 L 247 180 Q 251.1 181.7 250 177.5 L 247 176 Q 248.5 180.5 244 179 L 242.5 176 Q 240.3 176.8 241 174.5 L 239.5 173 L 229 173 L 228.5 171 L 214 171 L 213.5 167 L 202.5 167 L 201.5 165 L 188.5 165 L 185.5 161 L 172.5 161 L 172 159 L 175 159 Q 173.5 154.5 178 156 L 178 150 L 181 150 L 181 153 L 187 153 L 187.5 156 L 204.5 156 L 205 159 L 211 159 L 211 162 L 223 162 L 223 159 Q 218.9 160.7 220 156.5 L 217 155 L 217 153 L 211 153 L 211 150 Q 206.5 151.5 208 147 L 201.5 147 L 196 146 L 196 141 L 193 141 L 193 144 Q 188.5 142.5 190 147 L 196 147 L 196 150 L 190.5 150 L 190 147 L 184 147 Q 185.1 150.3 181 149 Q 182.3 145.3 176.5 147 L 175 144 L 172 144 L 172 150 Q 175.8 148.5 175 151.5 L 172 153 Q 173.1 156.3 169 155 Q 170.1 151.7 166 153 Q 167.1 155.7 164.5 155 L 163 156.5 Q 164.8 163.2 161.5 165 L 158.5 167 L 155.5 171 L 154 171 L 154 176 L 151 176 L 151 185 L 148 185 L 148 171 L 151 171 L 151 165 L 154 165 L 154 162 L 157 162 Q 155.5 157.5 160 159 L 160 153 L 163 153 L 163 147 Q 167.5 148.5 166 144 L 163 144 Q 164.5 139.5 160 141 Q 161.3 145.1 158 144 L 158 133.5 L 161 132.5 L 161 95 L 158 95 L 158 92 Q 153.5 93.5 155 89 L 149 89 L 148.5 86 L 137.5 86 L 136.5 83 L 122 83 L 122 77 L 119 76.5 L 119 69.5 L 116 68 L 116 59.5 L 113 59 L 113 57.5 L 110 55.5 L 113 55 L 113 51 Q 117.3 52 116.5 49 L 122 49 L 122 45 Z M 124 56 L 124 67 L 134 67 L 134 56 L 124 56 Z M 166 135 L 166 144 L 169 144 L 169 135 L 166 135 Z M 175 141 Q 174 146 178 144 Q 180 140 175 141 Z M 181 144 Q 180 149 184 147 Q 186 143 181 144 Z M 169 150 Q 168 155 172 153 Q 174 149 169 150 Z M 226 159 L 226 162 L 232 162 L 232 165 L 241 165 L 241 168 L 244 168 L 244 165 Q 248 167 247 163 L 245 161 L 243 161 Q 240 162 241 159 L 235 159 L 235 161 Q 231 162 232 159 L 226 159 Z M 254 161 L 254 165 Q 257 164 256 168 Q 260 167 259 170 L 262 170 Q 264 166 259 167 L 259 163 Q 258 160 254 161 Z " /><path fill="rgb(239,235,233)" stroke="rgb(239,235,233)" stroke-width="1" opacity="1" d="M 233 147 L 238 147 L 238 149 L 233 149 L 233 147 Z " /><path fill="rgb(239,235,233)" stroke="rgb(239,235,233)" stroke-width="1" opacity="1" d="M 205 153 Q 209.1 151.7 208 155 Q 203.9 156.3 205 153 Z " /><path fill="rgb(239,235,233)" stroke="rgb(239,235,233)" stroke-width="1" opacity="1" d="M 146 163 Q 149 162 148 165 Q 145 166 146 163 Z " /><path fill="rgb(239,235,233)" stroke="rgb(239,235,233)" stroke-width="1" opacity="1" d="M 143 165 Q 146.3 163.9 145 168 Q 141.7 169.1 143 165 Z " /><path fill="rgb(239,235,233)" stroke="rgb(239,235,233)" stroke-width="1" opacity="1" d="M 163 165 Q 167.1 163.7 166 167 Q 161.9 168.3 163 165 Z " /><path fill="rgb(239,235,233)" stroke="rgb(239,235,233)" stroke-width="1" opacity="1" d="M 178 165 L 183.5 165 L 184 168 L 190 168 L 190 176 L 187 176 L 187 185 L 184 185 L 184 182 L 181 182 L 181 179 Q 176.9 180.3 178 177 L 181 177 L 181 171 L 178 171 L 178 165 Z " /><path fill="rgb(239,235,233)" stroke="rgb(239,235,233)" stroke-width="1" opacity="1" d="M 160 168 Q 163.7 166.5 163 169.5 L 160 171 Q 161.1 174.3 157 173 Q 155.9 169.7 160 171 L 160 168 Z " /><path fill="rgb(239,235,233)" stroke="rgb(239,235,233)" stroke-width="1" opacity="1" d="M 193 171 L 196 171 L 196 179 L 190 179 L 190 177 L 193 177 L 193 171 Z " /><path fill="rgb(239,235,233)" stroke="rgb(239,235,233)" stroke-width="1" opacity="1" d="M 140 174 Q 143 173 142 176 Q 139 177 140 174 Z " /><path fill="rgb(239,235,233)" stroke="rgb(239,235,233)" stroke-width="1" opacity="1" d="M 142 177 Q 146.1 175.7 145 179 Q 140.9 180.3 142 177 Z " /><path fill="rgb(239,235,233)" stroke="rgb(239,235,233)" stroke-width="1" opacity="1" d="M 154 177 Q 158.1 175.7 157 179 Q 152.9 180.3 154 177 Z " /><path fill="rgb(239,235,233)" stroke="rgb(239,235,233)" stroke-width="1" opacity="1" d="M 172 180 L 178 180 L 178 182 L 175 182 L 175 188 L 172 188 L 172 180 Z " /><path fill="rgb(239,235,233)" stroke="rgb(239,235,233)" stroke-width="1" opacity="1" d="M 157 183 Q 161.1 181.7 160 185 Q 155.9 186.3 157 183 Z " /><path fill="rgb(239,235,233)" stroke="rgb(239,235,233)" stroke-width="1" opacity="1" d="M 166 183 Q 170.1 181.7 169 185 Q 164.9 186.3 166 183 Z " /><path fill="rgb(239,235,233)" stroke="rgb(239,235,233)" stroke-width="1" opacity="1" d="M 178 183 Q 182.1 181.7 181 185 Q 176.9 186.3 178 183 Z " /><path fill="rgb(239,235,233)" stroke="rgb(239,235,233)" stroke-width="1" opacity="1" d="M 142 186 Q 146.1 184.7 145 188 Q 140.9 189.3 142 186 Z " /><path fill="rgb(239,235,233)" stroke="rgb(239,235,233)" stroke-width="1" opacity="1" d="M 190 189 L 193 189.5 L 193 203 L 187 203 L 187 201 L 190 200.5 L 190 189 Z " /><path fill="rgb(239,235,233)" stroke="rgb(239,235,233)" stroke-width="1" opacity="1" d="M 172 192 L 187 192 L 187 200 L 169.5 200 L 168.5 203 L 140 203 Q 141.5 198.5 137 200 L 137 195 L 171.5 195 L 172 192 Z " /><path fill="rgb(239,235,233)" stroke="rgb(239,235,233)" stroke-width="1" opacity="1" d="M 169 204 L 175 204 L 175 206 L 169 206 L 169 204 Z " /></svg>